<?xml version="1.0" encoding="utf-8"?>
<!DOCTYPE svg PUBLIC "-//W3C//DTD SVG 1.1//EN" "http://www.w3.org/Graphics/SVG/1.1/DTD/svg11.dtd">
<svg version="1.1" id="Layer_1" xmlns="http://www.w3.org/2000/svg" xmlns:xlink="http://www.w3.org/1999/xlink" x="0px" y="0px"
	 viewBox="0 0 1634.3073 1634.3073" enable-background="new 0 0 1634.3073 1634.3073" xml:space="preserve">
<g>
	<g>
		<g>
			<g>
				<path d="M817.1536,883.7642c-7.928,13.1573-18.7673,24.7856-32.1843,34.0475h32.1843V883.7642z"/>
				<polygon points="784.9694,917.8118 784.9694,917.8118 784.9694,917.8118 				"/>
				<path d="M788.5898,874.8457c1.7554-1.2874,2.9973-4.1722,3.2575-6.4559c1.135-9.9607,2.1263-19.931,3.0027-28.9326
					l-47.9927,47.9927c-0.9093,5.6448-1.22,11.493-0.6676,17.6411C760.8,894.7337,774.813,884.9505,788.5898,874.8457z"/>
				<path d="M167.61,1522.2852c2.3461-0.3027,4.5753-1.5116,8.7988-2.9664c-3.4967-1.3264-4.4675-1.9747-5.4741-2.0364
					c-17.7753-1.0908-35.4393-1.4308-52.984-0.9258l-20.3855,20.3855C120.3995,1530.2791,143.7068,1525.3678,167.61,1522.2852z"/>
				<path d="M240.953,1487.4691c12.6933-9.4312,25.0217-19.1477,36.5015-29.7161h-0.0001v-32.4265
					c-25.6328,37.132-69.3845,54.5317-113.5378,45.064l-16.4242,16.4242c10.7505,2.8718,21.3992,6.2224,31.8139,10.0846
					C201.8484,1505.2584,221.3215,1502.0553,240.953,1487.4691z"/>
				<polygon points="277.4546,1425.3265 277.4546,1425.3265 277.4546,1425.3265 				"/>
				<path d="M228.0325,1432.2046c2.2837-0.2603,5.1685-1.5021,6.4559-3.2574c10.1048-13.777,19.888-27.7899,30.2453-42.4001
					c-6.148-0.5525-11.9963-0.2418-17.6411,0.6676l-47.9927,47.9927C208.1016,1434.3308,218.0719,1433.3396,228.0325,1432.2046z"/>
				<path d="M638.7581,1214.0399c-0.65,0.9364-1.5163,1.7179-1.81,2.6752c-4.794,15.624-14.3807,26.9688-26.3587,34.2314
					l19.4879,19.4879C643.9738,1252.903,647.933,1228.877,638.7581,1214.0399z"/>
				<path d="M769.772,1258.3542c14.361-13.563,34.9246-12.1124,47.3816,2.067v-28.4862c-1.7579-1.1608-3.6107-2.2623-5.5848-3.287
					c-36.2919-18.8346-83.5555,9.21-88.4355,51.7245c-2.5367,22.1013,5.9742,41.1473,15.0846,60.1323
					c6.1144,12.7412,9.2122,25.9294,6.4632,39.9642c-0.2492,1.2725-0.5324,2.5126-0.8313,3.7379l0,0l28.871,28.871l28.871,28.871
					c0.2361-2.6443,0.3696-5.3513,0.3694-8.1366c-0.0026-37.5702-12.4616-70.7133-36.257-99.8711
					C746.4902,1310.3975,748.5224,1278.4227,769.772,1258.3542z"/>
				<path d="M733.8334,1083.6122c9.9711,0.2924,19.8298,4.4108,29.0354,6.6162c0.7487-13.8323,1.5587-28.8019,2.4159-44.6426
					c-2.7407,1.1389-5.3067,2.1102-7.7943,3.2529c-45.238,20.7798-101.4064,12.2412-137.7528-21.9526
					c-2.1151-1.99-4.2181-3.9928-6.3256-5.991l-10.941,10.941c20.5819,31.1064,35.9777,65.4288,45.8286,103.2146
					c10.9749,42.0973,9.293,85.4957,14.5613,128.1539c2.1392,17.322,5.871,34.7307,11.3051,51.3187l16.4478,16.4476
					c-19.2542-45.2504-12.9668-92.7229-2.2908-141.0977c13.2014,5.2489,24.5125,11.0703,36.5262,14.1416
					c11.4441,2.9257,23.6222,2.9818,35.4774,4.2996c0.1448-1.1606,0.2893-2.3214,0.434-3.4821
					c-1.7248-0.434-3.4311-0.9692-5.1769-1.2874c-36.7479-6.6974-62.8253-35.123-65.897-71.8632
					C687.481,1105.2968,707.388,1082.8364,733.8334,1083.6122z"/>
				<path d="M817.1536,1065.4115c-0.5199,0.9409-1.0507,1.8801-1.5978,2.8169c-3.2502,5.5637-1.4894,7.8837,1.5978,12.1233
					V1065.4115z"/>
				<path d="M817.1536,951.8594v-34.0476h-32.1843l0,0l0,0v0.0001C798.3864,927.0737,809.2256,938.702,817.1536,951.8594z"/>
				<path d="M817.1536,1175.318v-23.2106c-1.4543-1.6765-2.9285-3.3259-4.4523-4.9263c-6.0275-6.3303-6.7256-12.1454-2.1127-19.3862
					c1.5292-2.4006,2.999-6.2974,2.097-8.5491c-5.3735-13.4147-11.4495-26.5477-18.3002-42.0647
					c0.618,20.8005,5.0504,42.0002-12.3888,58.0745C796.0824,1147.3322,807.7123,1160.6628,817.1536,1175.318z"/>
				<path d="M578.0966,1187.4729c24.563-10.8197,44.0956-40.6483,39.058-72.7676c-1.0341,2.8008-1.6624,4.2915-2.1407,5.8285
					c-7.0571,22.6725-26.2564,35.8599-48.2842,33.1431c-21.7496-2.6825-37.641-20.8589-39.5562-43.7073
					c-0.0697-0.8315-0.172-1.6786-0.3027-2.5332l-28.9031,28.9032c1.0678,1.7434,2.1463,3.4821,3.2322,5.2174v0.0001
					l25.7392,25.7393l25.7394,25.7393C561.5424,1192.76,570.1841,1190.9583,578.0966,1187.4729z"/>
				<path d="M791.8474,967.2338c-0.2602-2.2838-1.5021-5.1686-3.2575-6.4559c-13.7769-10.1048-27.7899-19.888-42.4001-30.2453
					c-1.5087,16.7908,3.3718,31.3619,9.5192,45.5869c1.0549,2.4411,3.5881,4.4153,5.791,6.1602
					c12.2597,9.7108,24.6277,19.2843,34.6372,27.0936C794.9743,997.6279,793.577,982.412,791.8474,967.2338z"/>
				<path d="M630.0772,1270.4344l-19.4879-19.4879c-7.2628,11.9781-18.6075,21.5648-34.2315,26.3588
					c-0.9573,0.2937-1.7387,1.16-2.6751,1.8101C588.5197,1288.2903,612.5457,1284.3309,630.0772,1270.4344z"/>
				<path d="M743.8498,1384.207c-1.2253,0.2988-2.4654,0.582-3.7379,0.8312c-14.0347,2.7491-27.223-0.3486-39.9643-6.4631
					c-18.9849-9.1104-38.0309-17.6212-60.1323-15.0846c-42.5146,4.8799-70.5591,52.1436-51.7245,88.4354
					c12.3827,23.8594,35.0627,31.4657,59.5541,33.8505c13.1976,1.2852,26.7106-1.0731,40.0812-1.0757
					c24.5735-0.0048,49.147,0.526,73.7208,0.8102c4.8754,0.0563,9.7521,0.0081,14.9082-2.192
					c-11.1704-1.8438-22.2789-4.47-33.5247-5.3649c-21.986-1.7498-44.0377-3.1244-66.0831-3.5334
					c-18.4794-0.3429-35.8837-3.2321-51.8285-13.1576c-18.7496-11.6714-22.156-35.215-7.1219-51.1338
					c20.0685-21.2496,52.0432-23.2817,75.587-4.0677c29.1579,23.7953,62.301,36.2544,99.8712,36.257
					c2.7852,0.0001,5.4924-0.1333,8.1366-0.3694l-28.871-28.871L743.8498,1384.207L743.8498,1384.207z"/>
				<path d="M817.1536,1518.7128c-12.7711,1.252-26.006,0.6571-39.424-1.9559c-11.6642-2.2716-23.7477-3.6691-35.5966-3.4315
					c-20.9274,0.4192-41.8763,1.8638-62.7172,3.8951c-19.5463,1.9049-31.2784,13.1404-35.577,32.5887
					c-0.5542,2.5063-6.0187,6.0505-8.6436,5.6254c-14.9258-2.4171-30.4089-3.9901-44.3686-9.3345
					c-66.8455-25.5912-135.9638-33.168-206.8523-28.8177c-1.0066,0.0616-1.9773,0.71-5.4741,2.0364
					c4.2235,1.4548,6.4527,2.6637,8.7988,2.9664c58.2755,7.5154,113.0143,25.8823,165.9723,51.1716
					c57.3314,27.3779,118.074,42.9177,181.8117,45.6367c2.84,0.1211,5.6897,0.0154,8.4703,0.0154
					c0.1639-1.3978,0.5401-2.4851,0.2778-2.6708c-17.243-12.212-10.5375-32.2549,10.4756-36.678
					c21.1531-4.4528,41.7607-3.3054,62.8468-0.0753V1518.7128z"/>
				<path d="M690.6138,1330.9711l-16.4477-16.4476c-16.588-5.4343-33.9966-9.1661-51.3186-11.3053
					c-42.6582-5.2682-86.0567-3.5863-128.154-14.5613c-37.7857-9.8508-72.1081-25.2467-103.2146-45.8286l-10.941,10.941
					c1.9982,2.1074,4.001,4.2104,5.9909,6.3256c34.1938,36.3463,42.7324,92.5148,21.9526,137.7527
					c-1.1427,2.4875-2.114,5.0536-3.253,7.7943c15.8408-0.8572,30.8103-1.6672,44.6426-2.4159
					c-2.2054-9.2056-6.3238-19.0642-6.6162-29.0354c-0.7757-26.4453,21.6846-46.3523,48.0699-44.1466
					c36.7401,3.0717,65.1658,29.1489,71.8631,65.897c0.3182,1.7458,0.8535,3.4521,1.2874,5.177
					c1.1606-0.1448,2.3214-0.2893,3.4821-0.4341c-1.3177-11.8551-1.3739-24.0332-4.2996-35.4773
					c-3.0713-12.0138-8.8926-23.3248-14.1416-36.5262C597.8909,1318.0042,645.3633,1311.7168,690.6138,1330.9711z"/>
				<path d="M277.4546,1457.7531c11.4798,10.5684,23.8081,20.2849,36.5015,29.7161c19.6315,14.5862,39.1047,17.7893,61.6466,9.4302
					c13.5309-5.0177,27.455-9.1808,41.4869-12.538c5.3535-1.2809,11.8183-0.2408,17.2313,1.4681
					c19.5444,6.1709,38.7726,13.34,58.2971,19.5798c8.2107,2.624,15.6593,1.201,23.1789-4.6566
					c18.0615-14.0695,39.5052-20.0344,62.5685-22.7021c-32.7446-10.8156-60.3903-28.7809-83.467-55.6967
					c-16.0743,17.4391-37.274,13.0068-58.0744,12.3887c15.517,6.8508,28.65,12.9269,42.0646,18.3003
					c2.2518,0.9021,6.1485-0.5677,8.5491-2.097c7.2409-4.6128,13.0559-3.9148,19.3862,2.1128
					c7.4946,7.136,15.9029,13.3125,24.4863,20.3748c-15.7797,11.5358-31.6432,20.0111-50.0667,10.4414
					c-14.2289-7.391-27.654-16.5277-40.6723-25.9447c-4.6208-3.3424-6.8869-5.413-12.7-2.0171
					c-55.0466,32.1592-117.5899,16.9668-150.4166-30.5864l0,0h-0.0001l0,0L277.4546,1457.7531L277.4546,1457.7531z"/>
				<path d="M501.1998,1141.557c-1.7354-1.0858-3.4741-2.1643-5.2175-3.2322l-28.9031,28.9032
					c0.8545,0.1307,1.7016,0.2329,2.5331,0.3026c22.8484,1.9152,41.0248,17.8066,43.7073,39.5563
					c2.7168,22.0276-10.4707,41.2269-33.1431,48.2841c-1.537,0.4784-3.0277,1.1067-5.8284,2.1407
					c32.1193,5.0377,61.9478-14.4949,72.7675-39.058c3.4854-7.9124,5.2871-16.5541,5.5627-25.4181l-25.7393-25.7393
					l-25.7392-25.7393V1141.557z"/>
				<path d="M335.7622,1396.0663c-14.225-6.1476-28.7961-11.0281-45.5869-9.5193c10.3573,14.6102,20.1405,28.6232,30.2453,42.4001
					c1.2874,1.7554,4.1721,2.9972,6.4559,3.2574c15.1782,1.7296,30.3941,3.127,42.1394,4.2898
					c-7.8093-10.0094-17.3828-22.3776-27.0936-34.6372C340.1776,1399.6543,338.2032,1397.1211,335.7622,1396.0663z"/>
			</g>
		</g>
		<g>
			<g>
				<path d="M750.543,817.1536c-13.1574,7.928-24.7856,18.7673-34.0475,32.1843v-32.1843H750.543z"/>
				<polygon points="716.4954,849.3379 716.4955,849.3379 716.4954,849.3379 				"/>
				<path d="M759.4615,845.7174c1.2874-1.7554,4.1721-2.9973,6.4559-3.2575c9.9607-1.135,19.931-2.1263,28.9327-3.0027
					l-47.9927,47.9926c-5.6448,0.9094-11.493,1.2201-17.6411,0.6677C739.5735,873.5073,749.3567,859.4943,759.4615,845.7174z"/>
				<path d="M112.0221,1466.6971c0.3027-2.3461,1.5116-4.5752,2.9664-8.7987c1.3265,3.4967,1.9748,4.4675,2.0365,5.4741
					c1.0908,17.7753,1.4308,35.4392,0.9258,52.984l-20.3855,20.3855C104.0281,1513.9077,108.9394,1490.6003,112.0221,1466.6971z"/>
				<path d="M146.8382,1393.3542c9.4311-12.6934,19.1477-25.0217,29.716-36.5016v0.0001h32.4265
					c-37.1319,25.6327-54.5318,69.3844-45.0639,113.5377l-16.4242,16.4242c-2.8717-10.7504-6.2224-21.399-10.0846-31.8138
					C129.0488,1432.4589,132.2519,1412.9857,146.8382,1393.3542z"/>
				<polygon points="208.9807,1356.8527 208.9807,1356.8527 208.9807,1356.8527 				"/>
				<path d="M202.1026,1406.2747c0.2603-2.2837,1.502-5.1685,3.2575-6.4558c13.7769-10.1049,27.7899-19.8881,42.4002-30.2454
					c0.5524,6.1481,0.2417,11.9962-0.6676,17.6411l-47.9927,47.9927C199.9764,1426.2057,200.9676,1416.2354,202.1026,1406.2747z"/>
				<path d="M420.2673,995.5491c-0.9364,0.6501-1.7178,1.5164-2.6751,1.81c-15.6241,4.7941-26.9688,14.3807-34.2315,26.3588
					l-19.4879-19.4879C381.4043,990.3335,405.4303,986.3742,420.2673,995.5491z"/>
				<path d="M375.953,864.5352c13.563-14.361,12.1124-34.9246-2.067-47.3817h28.4862c1.1608,1.758,2.2623,3.6107,3.287,5.5849
					c18.8346,36.2919-9.2099,83.5555-51.7245,88.4355c-22.1013,2.5367-41.1473-5.9742-60.1322-15.0846
					c-12.7413-6.1145-25.9296-9.2122-39.9642-6.4632c-1.2725,0.2492-2.5126,0.5324-3.7379,0.8312l0,0l-28.871-28.8709
					l-28.871-28.871c2.6442-0.2361,5.3513-0.3696,8.1366-0.3694c37.5702,0.0026,70.7133,12.4616,99.8712,36.257
					C323.9097,887.817,355.8845,885.7849,375.953,864.5352z"/>
				<path d="M550.6951,900.4739c-0.2924-9.9711-4.4108-19.8298-6.6162-29.0354c13.8323-0.7487,28.8018-1.5587,44.6426-2.416
					c-1.1389,2.7408-2.1103,5.3068-3.2529,7.7943c-20.7798,45.2379-12.2411,101.4064,21.9526,137.7528
					c1.9899,2.1151,3.9928,4.2181,5.991,6.3255l-10.941,10.941c-31.1065-20.5819-65.4289-35.9777-103.2146-45.8286
					c-42.0973-10.9749-85.4958-9.293-128.154-14.5613c-17.322-2.1392-34.7307-5.871-51.3186-11.3052l-16.4477-16.4478
					c45.2504,19.2542,92.7228,12.9669,141.0977,2.2908c-5.249-13.2014-11.0703-24.5125-14.1416-36.5263
					c-2.9257-11.444-2.9818-23.6221-4.2995-35.4773c1.1606-0.1448,2.3214-0.2893,3.482-0.434
					c0.4339,1.7248,0.9692,3.4311,1.2874,5.1769c6.6973,36.7479,35.123,62.8252,71.8631,65.8969
					C529.0104,946.8262,551.4708,926.9192,550.6951,900.4739z"/>
				<path d="M568.8958,817.1536c-0.9409,0.52-1.8802,1.0507-2.8169,1.5979c-5.5638,3.2502-7.8837,1.4894-12.1233-1.5979H568.8958z"
					/>
				<path d="M682.4479,817.1536h34.0476v32.1843l0,0l0,0h-0.0001C707.2335,835.9209,695.6052,825.0816,682.4479,817.1536z"/>
				<path d="M458.9892,817.1536h23.2106c1.6765,1.4543,3.3259,2.9286,4.9263,4.4523c6.3304,6.0275,12.1454,6.7256,19.3862,2.1127
					c2.4006-1.5292,6.2973-2.999,8.5491-2.097c13.4147,5.3735,26.5477,11.4495,42.0646,18.3002
					c-20.8005-0.618-42.0001-5.0504-58.0744,12.3888C486.975,838.2249,473.6444,826.5949,458.9892,817.1536z"/>
				<path d="M446.8344,1056.2107c10.8197-24.563,40.6482-44.0957,72.7675-39.058c-2.8007,1.0342-4.2914,1.6624-5.8284,2.1407
					c-22.6725,7.0572-35.8599,26.2565-33.1431,48.2842c2.6825,21.7496,20.8589,37.641,43.7073,39.5562
					c0.8315,0.0697,1.6786,0.172,2.5331,0.3027l-28.9032,28.9031c-1.7434-1.0679-3.482-2.1464-5.2174-3.2322h-0.0001
					l-25.7393-25.7393l-25.7393-25.7394C441.5472,1072.7648,443.3489,1064.1232,446.8344,1056.2107z"/>
				<path d="M667.0734,842.4599c2.2838,0.2602,5.1686,1.5021,6.4559,3.2575c10.1049,13.7769,19.888,27.7899,30.2454,42.4001
					c-16.7909,1.5087-31.3619-3.3718-45.5869-9.5192c-2.441-1.0549-4.4153-3.5881-6.1602-5.7911
					c-9.7108-12.2596-19.2842-24.6277-27.0936-34.6371C636.6793,839.3329,651.8953,840.7303,667.0734,842.4599z"/>
				<path d="M363.8727,1004.23l19.4879,19.4879c-11.9781,7.2628-21.5647,18.6075-26.3588,34.2316
					c-0.2936,0.9573-1.16,1.7388-1.81,2.675C346.0169,1045.7876,349.9763,1021.7615,363.8727,1004.23z"/>
				<path d="M250.1002,890.4574c-0.2989,1.2253-0.5821,2.4655-0.8313,3.738c-2.7491,14.0347,0.3487,27.223,6.4632,39.9643
					c9.1104,18.9849,17.6212,38.0309,15.0846,60.1323c-4.8799,42.5146-52.1436,70.559-88.4355,51.7244
					c-23.8593-12.3827-31.4656-35.0627-33.8504-59.5541c-1.2852-13.1976,1.0731-26.7105,1.0757-40.0812
					c0.0047-24.5735-0.5259-49.147-0.8102-73.7208c-0.0563-4.8754-0.008-9.7521,2.1921-14.9083
					c1.8437,11.1705,4.4699,22.2789,5.3648,33.5247c1.7498,21.9859,3.1244,44.0377,3.5334,66.0831
					c0.343,18.4794,3.2321,35.8837,13.1577,51.8286c11.6713,18.7496,35.215,22.1561,51.1337,7.1219
					c21.2496-20.0685,23.2818-52.0432,4.0678-75.587c-23.7954-29.1579-36.2544-62.301-36.257-99.8712
					c-0.0002-2.7852,0.1333-5.4923,0.3694-8.1365l28.871,28.871L250.1002,890.4574L250.1002,890.4574z"/>
				<path d="M115.5944,817.1536c-1.2519,12.7712-0.6571,26.006,1.9559,39.4241c2.2716,11.6642,3.6691,23.7476,3.4316,35.5966
					c-0.4192,20.9274-1.8638,41.8763-3.8951,62.7172c-1.905,19.5463-13.1404,31.2784-32.5888,35.577
					c-2.5064,0.5542-6.0505,6.0186-5.6253,8.6436c2.4171,14.9258,3.9901,30.4089,9.3344,44.3686
					c25.5912,66.8455,33.168,135.9637,28.8178,206.8523c-0.0617,1.0066-0.71,1.9773-2.0365,5.4741
					c-1.4547-4.2235-2.6637-6.4526-2.9664-8.7988c-7.5155-58.2755-25.8823-113.0143-51.1717-165.9723
					c-27.3779-57.3313-42.9177-118.074-45.6367-181.8116c-0.121-2.84-0.0154-5.6897-0.0154-8.4704
					c1.3979-0.1639,2.4852-0.54,2.6708-0.2778c12.2121,17.2429,32.2549,10.5375,36.6781-10.4756
					c4.4526-21.1531,3.3054-41.7607,0.0752-62.8469H115.5944z"/>
				<path d="M303.3362,943.6935l16.4477,16.4476c5.4342,16.588,9.1661,33.9966,11.3053,51.3186
					c5.2681,42.6582,3.5863,86.0568,14.5612,128.1541c9.8508,37.7856,25.2467,72.108,45.8286,103.2145l-10.941,10.941
					c-2.1074-1.9982-4.2104-4.001-6.3256-5.9908c-36.3463-34.1938-92.5147-42.7324-137.7527-21.9526
					c-2.4875,1.1426-5.0535,2.114-7.7943,3.2529c0.8572-15.8407,1.6673-30.8103,2.4159-44.6426
					c9.2056,2.2053,19.0643,6.3237,29.0354,6.6162c26.4454,0.7756,46.3523-21.6847,44.1466-48.0698
					c-3.0717-36.7401-29.149-65.1659-65.8969-71.8632c-1.7458-0.3181-3.4521-0.8534-5.177-1.2874
					c0.1447-1.1606,0.2892-2.3214,0.434-3.4821c11.8552,1.3177,24.0332,1.3739,35.4772,4.2996
					c12.0139,3.0713,23.325,8.8926,36.5263,14.1416C316.303,1036.4163,322.5904,988.9438,303.3362,943.6935z"/>
				<path d="M176.5542,1356.8527c-10.5683-11.4799-20.2849-23.8081-29.716-36.5015c-14.5863-19.6315-17.7894-39.1046-9.4303-61.6466
					c5.0178-13.531,9.1808-27.4551,12.5381-41.4869c1.2808-5.3535,0.2408-11.8182-1.4682-17.2313
					c-6.171-19.5443-13.34-38.7726-19.5798-58.297c-2.6241-8.2107-1.2011-15.6593,4.6566-23.179
					c14.0694-18.0615,20.0344-39.5051,22.7021-62.5685c10.8156,32.7445,28.7809,60.3903,55.6967,83.467
					c-17.4391,16.0742-13.0068,37.2739-12.3887,58.0743c-6.8508-15.517-12.9268-28.6499-18.3002-42.0646
					c-0.9021-2.2518,0.5678-6.1484,2.097-8.5491c4.6129-7.241,3.9148-13.0559-2.1127-19.3862
					c-7.1361-7.4946-13.3126-15.903-20.3748-24.4863c-11.5357,15.7797-20.0112,31.6432-10.4414,50.0668
					c7.3909,14.2289,16.5276,27.6541,25.9447,40.6722c3.3424,4.6208,5.413,6.8868,2.0171,12.7001
					c-32.1592,55.0465-16.9668,117.5898,30.5864,150.4165l0,0l0,0.0001h0h-32.4265V1356.8527z"/>
				<path d="M492.7502,1133.1074c1.0858,1.7354,2.1643,3.4741,3.2322,5.2175l-28.9032,28.9031
					c-0.1307-0.8545-0.233-1.7015-0.3026-2.5331c-1.9152-22.8484-17.8066-41.0249-39.5562-43.7074
					c-22.0277-2.7168-41.227,10.4707-48.2841,33.1432c-0.4784,1.537-1.1066,3.0277-2.1407,5.8284
					c-5.0378-32.1193,14.4949-61.9478,39.058-72.7675c7.9124-3.4855,16.5542-5.2871,25.4182-5.5627l25.7393,25.7393
					L492.7502,1133.1074L492.7502,1133.1074z"/>
				<path d="M238.241,1298.545c6.1475,14.225,11.028,28.796,9.5193,45.5869c-14.6103-10.3573-28.6232-20.1405-42.4002-30.2454
					c-1.7554-1.2874-2.9972-4.1721-3.2575-6.4559c-1.7296-15.1781-3.127-30.394-4.2898-42.1394
					c10.0095,7.8093,22.3775,17.3828,34.6372,27.0936C234.653,1294.1296,237.1861,1296.104,238.241,1298.545z"/>
			</g>
		</g>
	</g>
	<g>
		<g>
			<g>
				<path d="M883.7642,817.1536c13.1573,7.928,24.7856,18.7673,34.0475,32.1843v-32.1843H883.7642z"/>
				<polygon points="917.8118,849.3379 917.8118,849.3379 917.8118,849.3379 				"/>
				<path d="M874.8457,845.7174c-1.2874-1.7554-4.1722-2.9973-6.4559-3.2575c-9.9607-1.135-19.931-2.1263-28.9326-3.0027
					l47.9927,47.9926c5.6448,0.9094,11.493,1.2201,17.6411,0.6677C894.7337,873.5073,884.9505,859.4943,874.8457,845.7174z"/>
				<path d="M1522.2852,1466.6971c-0.3027-2.3461-1.5116-4.5752-2.9664-8.7987c-1.3264,3.4967-1.9747,4.4675-2.0364,5.4741
					c-1.0908,17.7753-1.4308,35.4392-0.9258,52.984l20.3855,20.3855C1530.2791,1513.9077,1525.3678,1490.6003,1522.2852,1466.6971z"
					/>
				<path d="M1487.4691,1393.3542c-9.4312-12.6934-19.1477-25.0217-29.7161-36.5016v0.0001h-32.4265
					c37.132,25.6327,54.5317,69.3844,45.064,113.5377l16.4242,16.4242c2.8718-10.7504,6.2224-21.399,10.0846-31.8138
					C1505.2584,1432.4589,1502.0553,1412.9857,1487.4691,1393.3542z"/>
				<polygon points="1425.3265,1356.8527 1425.3265,1356.8527 1425.3265,1356.8527 				"/>
				<path d="M1432.2046,1406.2747c-0.2603-2.2837-1.5021-5.1685-3.2574-6.4558c-13.777-10.1049-27.7899-19.8881-42.4001-30.2454
					c-0.5525,6.1481-0.2418,11.9962,0.6676,17.6411l47.9927,47.9927C1434.3308,1426.2057,1433.3396,1416.2354,1432.2046,1406.2747z"
					/>
				<path d="M1214.0399,995.5491c0.9364,0.6501,1.7179,1.5164,2.6752,1.81c15.624,4.7941,26.9688,14.3807,34.2314,26.3588
					l19.4879-19.4879C1252.903,990.3335,1228.877,986.3742,1214.0399,995.5491z"/>
				<path d="M1258.3542,864.5352c-13.563-14.361-12.1124-34.9246,2.067-47.3817h-28.4862c-1.1608,1.758-2.2623,3.6107-3.287,5.5849
					c-18.8346,36.2919,9.21,83.5555,51.7245,88.4355c22.1013,2.5367,41.1473-5.9742,60.1323-15.0846
					c12.7412-6.1145,25.9294-9.2122,39.9642-6.4632c1.2725,0.2492,2.5126,0.5324,3.7379,0.8312l0,0l28.871-28.8709l28.871-28.871
					c-2.6443-0.2361-5.3513-0.3696-8.1366-0.3694c-37.5702,0.0026-70.7133,12.4616-99.8711,36.257
					C1310.3975,887.817,1278.4227,885.7849,1258.3542,864.5352z"/>
				<path d="M1083.6122,900.4739c0.2924-9.9711,4.4108-19.8298,6.6162-29.0354c-13.8323-0.7487-28.8019-1.5587-44.6426-2.416
					c1.1389,2.7408,2.1102,5.3068,3.2529,7.7943c20.7798,45.2379,12.2412,101.4064-21.9526,137.7528
					c-1.99,2.1151-3.9928,4.2181-5.991,6.3255l10.941,10.941c31.1064-20.5819,65.4288-35.9777,103.2146-45.8286
					c42.0973-10.9749,85.4957-9.293,128.1539-14.5613c17.322-2.1392,34.7307-5.871,51.3187-11.3052l16.4476-16.4478
					c-45.2504,19.2542-92.7229,12.9669-141.0977,2.2908c5.2489-13.2014,11.0703-24.5125,14.1416-36.5263
					c2.9257-11.444,2.9818-23.6221,4.2996-35.4773c-1.1606-0.1448-2.3214-0.2893-3.4821-0.434
					c-0.434,1.7248-0.9692,3.4311-1.2874,5.1769c-6.6974,36.7479-35.123,62.8252-71.8632,65.8969
					C1105.2968,946.8262,1082.8364,926.9192,1083.6122,900.4739z"/>
				<path d="M1065.4115,817.1536c0.9409,0.52,1.8801,1.0507,2.8169,1.5979c5.5637,3.2502,7.8837,1.4894,12.1233-1.5979H1065.4115z"
					/>
				<path d="M951.8594,817.1536h-34.0476v32.1843l0,0l0,0h0.0001C927.0737,835.9209,938.702,825.0816,951.8594,817.1536z"/>
				<path d="M1175.318,817.1536h-23.2106c-1.6765,1.4543-3.3259,2.9286-4.9263,4.4523c-6.3303,6.0275-12.1454,6.7256-19.3862,2.1127
					c-2.4006-1.5292-6.2974-2.999-8.5491-2.097c-13.4147,5.3735-26.5477,11.4495-42.0647,18.3002
					c20.8005-0.618,42.0002-5.0504,58.0745,12.3888C1147.3322,838.2249,1160.6628,826.5949,1175.318,817.1536z"/>
				<path d="M1187.4729,1056.2107c-10.8197-24.563-40.6483-44.0957-72.7676-39.058c2.8008,1.0342,4.2915,1.6624,5.8285,2.1407
					c22.6725,7.0572,35.8599,26.2565,33.1431,48.2842c-2.6825,21.7496-20.8589,37.641-43.7073,39.5562
					c-0.8315,0.0697-1.6786,0.172-2.5332,0.3027l28.9032,28.9031c1.7434-1.0679,3.4821-2.1464,5.2174-3.2322h0.0001l25.7393-25.7393
					l25.7393-25.7394C1192.76,1072.7648,1190.9583,1064.1232,1187.4729,1056.2107z"/>
				<path d="M967.2338,842.4599c-2.2838,0.2602-5.1686,1.5021-6.4559,3.2575c-10.1048,13.7769-19.888,27.7899-30.2453,42.4001
					c16.7908,1.5087,31.3619-3.3718,45.5869-9.5192c2.4411-1.0549,4.4153-3.5881,6.1602-5.7911
					c9.7108-12.2596,19.2843-24.6277,27.0936-34.6371C997.6279,839.3329,982.412,840.7303,967.2338,842.4599z"/>
				<path d="M1270.4344,1004.23l-19.4879,19.4879c11.9781,7.2628,21.5648,18.6075,26.3588,34.2316
					c0.2937,0.9573,1.16,1.7388,1.8101,2.675C1288.2903,1045.7876,1284.3309,1021.7615,1270.4344,1004.23z"/>
				<path d="M1384.207,890.4574c0.2988,1.2253,0.582,2.4655,0.8312,3.738c2.7491,14.0347-0.3486,27.223-6.4631,39.9643
					c-9.1104,18.9849-17.6212,38.0309-15.0846,60.1323c4.8799,42.5146,52.1436,70.559,88.4354,51.7244
					c23.8594-12.3827,31.4657-35.0627,33.8505-59.5541c1.2852-13.1976-1.0731-26.7105-1.0757-40.0812
					c-0.0048-24.5735,0.526-49.147,0.8102-73.7208c0.0563-4.8754,0.0081-9.7521-2.192-14.9083
					c-1.8438,11.1705-4.47,22.2789-5.3649,33.5247c-1.7498,21.9859-3.1244,44.0377-3.5334,66.0831
					c-0.3429,18.4794-3.2321,35.8837-13.1576,51.8286c-11.6714,18.7496-35.215,22.1561-51.1338,7.1219
					c-21.2496-20.0685-23.2817-52.0432-4.0677-75.587c23.7953-29.1579,36.2544-62.301,36.257-99.8712
					c0.0001-2.7852-0.1333-5.4923-0.3694-8.1365l-28.871,28.871L1384.207,890.4574L1384.207,890.4574z"/>
				<path d="M1518.7128,817.1536c1.252,12.7712,0.6571,26.006-1.9559,39.4241c-2.2716,11.6642-3.6691,23.7476-3.4315,35.5966
					c0.4192,20.9274,1.8638,41.8763,3.8951,62.7172c1.9049,19.5463,13.1404,31.2784,32.5887,35.577
					c2.5063,0.5542,6.0505,6.0186,5.6254,8.6436c-2.4171,14.9258-3.9901,30.4089-9.3345,44.3686
					c-25.5912,66.8455-33.168,135.9637-28.8177,206.8523c0.0616,1.0066,0.71,1.9773,2.0364,5.4741
					c1.4548-4.2235,2.6637-6.4526,2.9664-8.7988c7.5154-58.2755,25.8823-113.0143,51.1716-165.9723
					c27.3779-57.3313,42.9177-118.074,45.6367-181.8116c0.1211-2.84,0.0154-5.6897,0.0154-8.4704
					c-1.3978-0.1639-2.4851-0.54-2.6708-0.2778c-12.212,17.2429-32.2549,10.5375-36.678-10.4756
					c-4.4528-21.1531-3.3054-41.7607-0.0753-62.8469H1518.7128z"/>
				<path d="M1330.9711,943.6935l-16.4476,16.4476c-5.4343,16.588-9.1661,33.9966-11.3053,51.3186
					c-5.2682,42.6582-3.5863,86.0568-14.5613,128.1541c-9.8508,37.7856-25.2467,72.108-45.8286,103.2145l10.941,10.941
					c2.1074-1.9982,4.2104-4.001,6.3256-5.9908c36.3463-34.1938,92.5148-42.7324,137.7527-21.9526
					c2.4875,1.1426,5.0536,2.114,7.7943,3.2529c-0.8572-15.8407-1.6672-30.8103-2.4159-44.6426
					c-9.2056,2.2053-19.0642,6.3237-29.0354,6.6162c-26.4453,0.7756-46.3523-21.6847-44.1466-48.0698
					c3.0717-36.7401,29.1489-65.1659,65.897-71.8632c1.7458-0.3181,3.4521-0.8534,5.177-1.2874
					c-0.1448-1.1606-0.2893-2.3214-0.4341-3.4821c-11.8551,1.3177-24.0332,1.3739-35.4773,4.2996
					c-12.0138,3.0713-23.3248,8.8926-36.5262,14.1416C1318.0042,1036.4163,1311.7168,988.9438,1330.9711,943.6935z"/>
				<path d="M1457.7531,1356.8527c10.5684-11.4799,20.2849-23.8081,29.7161-36.5015c14.5862-19.6315,17.7893-39.1046,9.4302-61.6466
					c-5.0177-13.531-9.1808-27.4551-12.538-41.4869c-1.2809-5.3535-0.2408-11.8182,1.4681-17.2313
					c6.1709-19.5443,13.34-38.7726,19.5798-58.297c2.624-8.2107,1.201-15.6593-4.6566-23.179
					c-14.0695-18.0615-20.0344-39.5051-22.7021-62.5685c-10.8156,32.7445-28.7809,60.3903-55.6967,83.467
					c17.4391,16.0742,13.0068,37.2739,12.3887,58.0743c6.8508-15.517,12.9269-28.6499,18.3003-42.0646
					c0.9021-2.2518-0.5677-6.1484-2.097-8.5491c-4.6128-7.241-3.9148-13.0559,2.1128-19.3862
					c7.136-7.4946,13.3125-15.903,20.3748-24.4863c11.5358,15.7797,20.0111,31.6432,10.4414,50.0668
					c-7.391,14.2289-16.5277,27.6541-25.9447,40.6722c-3.3424,4.6208-5.413,6.8868-2.0171,12.7001
					c32.1592,55.0465,16.9668,117.5898-30.5864,150.4165l0,0v0.0001l0,0h32.4265V1356.8527z"/>
				<path d="M1141.557,1133.1074c-1.0858,1.7354-2.1643,3.4741-3.2322,5.2175l28.9032,28.9031
					c0.1307-0.8545,0.2329-1.7015,0.3026-2.5331c1.9152-22.8484,17.8066-41.0249,39.5563-43.7074
					c22.0276-2.7168,41.2269,10.4707,48.2841,33.1432c0.4784,1.537,1.1067,3.0277,2.1407,5.8284
					c5.0377-32.1193-14.4949-61.9478-39.058-72.7675c-7.9124-3.4855-16.5541-5.2871-25.4181-5.5627l-25.7393,25.7393
					l-25.7393,25.7393H1141.557z"/>
				<path d="M1396.0663,1298.545c-6.1476,14.225-11.0281,28.796-9.5193,45.5869c14.6102-10.3573,28.6232-20.1405,42.4001-30.2454
					c1.7554-1.2874,2.9972-4.1721,3.2574-6.4559c1.7296-15.1781,3.127-30.394,4.2898-42.1394
					c-10.0094,7.8093-22.3776,17.3828-34.6372,27.0936C1399.6543,1294.1296,1397.1211,1296.104,1396.0663,1298.545z"/>
			</g>
		</g>
		<g>
			<g>
				<path d="M817.1536,883.7642c7.928,13.1573,18.7673,24.7856,32.1843,34.0475h-32.1843V883.7642z"/>
				<polygon points="849.3379,917.8118 849.3379,917.8118 849.3379,917.8118 				"/>
				<path d="M845.7174,874.8457c-1.7554-1.2874-2.9973-4.1722-3.2575-6.4559c-1.135-9.9607-2.1263-19.931-3.0027-28.9326
					l47.9926,47.9927c0.9094,5.6448,1.2201,11.493,0.6677,17.6411C873.5073,894.7337,859.4943,884.9505,845.7174,874.8457z"/>
				<path d="M1466.6971,1522.2852c-2.3461-0.3027-4.5752-1.5116-8.7987-2.9664c3.4967-1.3264,4.4675-1.9747,5.4741-2.0364
					c17.7753-1.0908,35.4392-1.4308,52.984-0.9258l20.3855,20.3855C1513.9077,1530.2791,1490.6003,1525.3678,1466.6971,1522.2852z"
					/>
				<path d="M1393.3542,1487.4691c-12.6934-9.4312-25.0217-19.1477-36.5016-29.7161h0.0001v-32.4265
					c25.6327,37.132,69.3844,54.5317,113.5377,45.064l16.4242,16.4242c-10.7504,2.8718-21.399,6.2224-31.8138,10.0846
					C1432.4589,1505.2584,1412.9857,1502.0553,1393.3542,1487.4691z"/>
				<polygon points="1356.8527,1425.3265 1356.8527,1425.3265 1356.8527,1425.3265 				"/>
				<path d="M1406.2747,1432.2046c-2.2837-0.2603-5.1685-1.5021-6.4558-3.2574c-10.1049-13.777-19.8881-27.7899-30.2454-42.4001
					c6.1481-0.5525,11.9962-0.2418,17.6411,0.6676l47.9927,47.9927C1426.2057,1434.3308,1416.2354,1433.3396,1406.2747,1432.2046z"
					/>
				<path d="M995.5491,1214.0399c0.6501,0.9364,1.5164,1.7179,1.81,2.6752c4.7941,15.624,14.3807,26.9688,26.3588,34.2314
					l-19.4879,19.4879C990.3335,1252.903,986.3742,1228.877,995.5491,1214.0399z"/>
				<path d="M864.5352,1258.3542c-14.361-13.563-34.9246-12.1124-47.3817,2.067v-28.4862c1.758-1.1608,3.6107-2.2623,5.5849-3.287
					c36.2919-18.8346,83.5555,9.21,88.4355,51.7245c2.5367,22.1013-5.9742,41.1473-15.0846,60.1323
					c-6.1145,12.7412-9.2122,25.9294-6.4632,39.9642c0.2492,1.2725,0.5324,2.5126,0.8312,3.7379l0,0l-28.8709,28.871l-28.871,28.871
					c-0.2361-2.6443-0.3696-5.3513-0.3694-8.1366c0.0026-37.5702,12.4616-70.7133,36.257-99.8711
					C887.817,1310.3975,885.7849,1278.4227,864.5352,1258.3542z"/>
				<path d="M900.4739,1083.6122c-9.9711,0.2924-19.8298,4.4108-29.0354,6.6162c-0.7487-13.8323-1.5587-28.8019-2.416-44.6426
					c2.7408,1.1389,5.3068,2.1102,7.7943,3.2529c45.2379,20.7798,101.4064,12.2412,137.7528-21.9526
					c2.1151-1.99,4.2181-3.9928,6.3255-5.991l10.941,10.941c-20.5819,31.1064-35.9777,65.4288-45.8286,103.2146
					c-10.9749,42.0973-9.293,85.4957-14.5613,128.1539c-2.1392,17.322-5.871,34.7307-11.3052,51.3187l-16.4478,16.4476
					c19.2542-45.2504,12.9669-92.7229,2.2908-141.0977c-13.2014,5.2489-24.5125,11.0703-36.5263,14.1416
					c-11.444,2.9257-23.6221,2.9818-35.4773,4.2996c-0.1448-1.1606-0.2893-2.3214-0.434-3.4821
					c1.7248-0.434,3.4311-0.9692,5.1769-1.2874c36.7479-6.6974,62.8252-35.123,65.8969-71.8632
					C946.8262,1105.2968,926.9192,1082.8364,900.4739,1083.6122z"/>
				<path d="M817.1536,1065.4115c0.52,0.9409,1.0507,1.8801,1.5979,2.8169c3.2502,5.5637,1.4894,7.8837-1.5979,12.1233V1065.4115z"
					/>
				<path d="M817.1536,951.8594v-34.0476h32.1843l0,0l0,0v0.0001C835.9209,927.0737,825.0816,938.702,817.1536,951.8594z"/>
				<path d="M817.1536,1175.318v-23.2106c1.4543-1.6765,2.9286-3.3259,4.4523-4.9263c6.0275-6.3303,6.7256-12.1454,2.1127-19.3862
					c-1.5292-2.4006-2.999-6.2974-2.097-8.5491c5.3735-13.4147,11.4495-26.5477,18.3002-42.0647
					c-0.618,20.8005-5.0504,42.0002,12.3888,58.0745C838.2249,1147.3322,826.5949,1160.6628,817.1536,1175.318z"/>
				<path d="M1056.2107,1187.4729c-24.563-10.8197-44.0957-40.6483-39.058-72.7676c1.0342,2.8008,1.6624,4.2915,2.1407,5.8285
					c7.0572,22.6725,26.2565,35.8599,48.2842,33.1431c21.7496-2.6825,37.641-20.8589,39.5562-43.7073
					c0.0697-0.8315,0.172-1.6786,0.3027-2.5332l28.9031,28.9032c-1.0679,1.7434-2.1464,3.4821-3.2322,5.2174v0.0001
					l-25.7393,25.7393l-25.7394,25.7393C1072.7648,1192.76,1064.1232,1190.9583,1056.2107,1187.4729z"/>
				<path d="M842.4599,967.2338c0.2602-2.2838,1.5021-5.1686,3.2575-6.4559c13.7769-10.1048,27.7899-19.888,42.4001-30.2453
					c1.5087,16.7908-3.3718,31.3619-9.5192,45.5869c-1.0549,2.4411-3.5881,4.4153-5.7911,6.1602
					c-12.2596,9.7108-24.6277,19.2843-34.6371,27.0936C839.3329,997.6279,840.7303,982.412,842.4599,967.2338z"/>
				<path d="M1004.23,1270.4344l19.4879-19.4879c7.2628,11.9781,18.6075,21.5648,34.2316,26.3588
					c0.9573,0.2937,1.7388,1.16,2.675,1.8101C1045.7876,1288.2903,1021.7615,1284.3309,1004.23,1270.4344z"/>
				<path d="M890.4574,1384.207c1.2253,0.2988,2.4655,0.582,3.738,0.8312c14.0347,2.7491,27.223-0.3486,39.9643-6.4631
					c18.9849-9.1104,38.0309-17.6212,60.1323-15.0846c42.5146,4.8799,70.559,52.1436,51.7244,88.4354
					c-12.3827,23.8594-35.0627,31.4657-59.5541,33.8505c-13.1976,1.2852-26.7105-1.0731-40.0812-1.0757
					c-24.5735-0.0048-49.147,0.526-73.7208,0.8102c-4.8754,0.0563-9.7521,0.0081-14.9083-2.192
					c11.1705-1.8438,22.2789-4.47,33.5247-5.3649c21.9859-1.7498,44.0377-3.1244,66.0831-3.5334
					c18.4794-0.3429,35.8837-3.2321,51.8286-13.1576c18.7496-11.6714,22.1561-35.215,7.1219-51.1338
					c-20.0685-21.2496-52.0432-23.2817-75.587-4.0677c-29.1579,23.7953-62.301,36.2544-99.8712,36.257
					c-2.7852,0.0001-5.4923-0.1333-8.1365-0.3694l28.871-28.871L890.4574,1384.207L890.4574,1384.207z"/>
				<path d="M817.1536,1518.7128c12.7712,1.252,26.006,0.6571,39.4241-1.9559c11.6642-2.2716,23.7476-3.6691,35.5966-3.4315
					c20.9274,0.4192,41.8763,1.8638,62.7172,3.8951c19.5463,1.9049,31.2784,13.1404,35.577,32.5887
					c0.5542,2.5063,6.0186,6.0505,8.6436,5.6254c14.9258-2.4171,30.4089-3.9901,44.3686-9.3345
					c66.8455-25.5912,135.9637-33.168,206.8523-28.8177c1.0066,0.0616,1.9773,0.71,5.4741,2.0364
					c-4.2235,1.4548-6.4526,2.6637-8.7988,2.9664c-58.2755,7.5154-113.0143,25.8823-165.9723,51.1716
					c-57.3313,27.3779-118.074,42.9177-181.8116,45.6367c-2.84,0.1211-5.6897,0.0154-8.4704,0.0154
					c-0.1639-1.3978-0.54-2.4851-0.2778-2.6708c17.2429-12.212,10.5375-32.2549-10.4756-36.678
					c-21.1531-4.4528-41.7607-3.3054-62.8469-0.0753V1518.7128z"/>
				<path d="M943.6935,1330.9711l16.4476-16.4476c16.588-5.4343,33.9966-9.1661,51.3186-11.3053
					c42.6582-5.2682,86.0568-3.5863,128.1541-14.5613c37.7856-9.8508,72.108-25.2467,103.2145-45.8286l10.941,10.941
					c-1.9982,2.1074-4.001,4.2104-5.9908,6.3256c-34.1938,36.3463-42.7324,92.5148-21.9526,137.7527
					c1.1426,2.4875,2.114,5.0536,3.2529,7.7943c-15.8407-0.8572-30.8103-1.6672-44.6426-2.4159
					c2.2053-9.2056,6.3237-19.0642,6.6162-29.0354c0.7756-26.4453-21.6847-46.3523-48.0698-44.1466
					c-36.7401,3.0717-65.1659,29.1489-71.8632,65.897c-0.3181,1.7458-0.8534,3.4521-1.2874,5.177
					c-1.1606-0.1448-2.3214-0.2893-3.4821-0.4341c1.3177-11.8551,1.3739-24.0332,4.2996-35.4773
					c3.0713-12.0138,8.8926-23.3248,14.1416-36.5262C1036.4163,1318.0042,988.9438,1311.7168,943.6935,1330.9711z"/>
				<path d="M1356.8527,1457.7531c-11.4799,10.5684-23.8081,20.2849-36.5015,29.7161
					c-19.6315,14.5862-39.1046,17.7893-61.6466,9.4302c-13.531-5.0177-27.4551-9.1808-41.4869-12.538
					c-5.3535-1.2809-11.8182-0.2408-17.2313,1.4681c-19.5443,6.1709-38.7726,13.34-58.297,19.5798
					c-8.2107,2.624-15.6593,1.201-23.179-4.6566c-18.0615-14.0695-39.5051-20.0344-62.5685-22.7021
					c32.7445-10.8156,60.3903-28.7809,83.467-55.6967c16.0742,17.4391,37.2739,13.0068,58.0743,12.3887
					c-15.517,6.8508-28.6499,12.9269-42.0646,18.3003c-2.2518,0.9021-6.1484-0.5677-8.5491-2.097
					c-7.241-4.6128-13.0559-3.9148-19.3862,2.1128c-7.4946,7.136-15.903,13.3125-24.4863,20.3748
					c15.7797,11.5358,31.6432,20.0111,50.0668,10.4414c14.2289-7.391,27.6541-16.5277,40.6722-25.9447
					c4.6208-3.3424,6.8868-5.413,12.7001-2.0171c55.0465,32.1592,117.5898,16.9668,150.4165-30.5864l0,0h0.0001l0,0v32.4265
					H1356.8527z"/>
				<path d="M1133.1074,1141.557c1.7354-1.0858,3.4741-2.1643,5.2175-3.2322l28.9031,28.9032
					c-0.8545,0.1307-1.7015,0.2329-2.5331,0.3026c-22.8484,1.9152-41.0249,17.8066-43.7074,39.5563
					c-2.7168,22.0276,10.4707,41.2269,33.1432,48.2841c1.537,0.4784,3.0277,1.1067,5.8284,2.1407
					c-32.1193,5.0377-61.9478-14.4949-72.7675-39.058c-3.4855-7.9124-5.2871-16.5541-5.5627-25.4181l25.7393-25.7393
					l25.7393-25.7393V1141.557z"/>
				<path d="M1298.545,1396.0663c14.225-6.1476,28.796-11.0281,45.5869-9.5193c-10.3573,14.6102-20.1405,28.6232-30.2454,42.4001
					c-1.2874,1.7554-4.1721,2.9972-6.4559,3.2574c-15.1781,1.7296-30.394,3.127-42.1394,4.2898
					c7.8093-10.0094,17.3828-22.3776,27.0936-34.6372C1294.1296,1399.6543,1296.104,1397.1211,1298.545,1396.0663z"/>
			</g>
		</g>
	</g>
	<g>
		<g>
			<g>
				<path d="M817.1536,750.543c7.928-13.1574,18.7673-24.7856,32.1843-34.0475h-32.1843V750.543z"/>
				<polygon points="849.3379,716.4954 849.3379,716.4955 849.3379,716.4954 				"/>
				<path d="M845.7174,759.4615c-1.7554,1.2874-2.9973,4.1721-3.2575,6.4559c-1.135,9.9607-2.1263,19.931-3.0027,28.9327
					l47.9926-47.9927c0.9094-5.6448,1.2201-11.493,0.6677-17.6411C873.5073,739.5735,859.4943,749.3567,845.7174,759.4615z"/>
				<path d="M1466.6971,112.0221c-2.3461,0.3027-4.5752,1.5116-8.7987,2.9664c3.4967,1.3265,4.4675,1.9748,5.4741,2.0365
					c17.7753,1.0908,35.4392,1.4308,52.984,0.9258l20.3855-20.3855C1513.9077,104.0281,1490.6003,108.9394,1466.6971,112.0221z"/>
				<path d="M1393.3542,146.8382c-12.6934,9.4311-25.0217,19.1477-36.5016,29.716h0.0001v32.4265
					c25.6327-37.1319,69.3844-54.5318,113.5377-45.0639l16.4242-16.4242c-10.7504-2.8717-21.399-6.2224-31.8138-10.0846
					C1432.4589,129.0488,1412.9857,132.2519,1393.3542,146.8382z"/>
				<polygon points="1356.8527,208.9807 1356.8527,208.9807 1356.8527,208.9807 				"/>
				<path d="M1406.2747,202.1026c-2.2837,0.2603-5.1685,1.502-6.4558,3.2575c-10.1049,13.7769-19.8881,27.7899-30.2454,42.4002
					c6.1481,0.5524,11.9962,0.2417,17.6411-0.6676l47.9927-47.9927C1426.2057,199.9764,1416.2354,200.9676,1406.2747,202.1026z"/>
				<path d="M995.5491,420.2673c0.6501-0.9364,1.5164-1.7178,1.81-2.6751c4.7941-15.6241,14.3807-26.9688,26.3588-34.2315
					l-19.4879-19.4879C990.3335,381.4043,986.3742,405.4303,995.5491,420.2673z"/>
				<path d="M864.5352,375.953c-14.361,13.563-34.9246,12.1124-47.3817-2.067v28.4862c1.758,1.1608,3.6107,2.2623,5.5849,3.287
					c36.2919,18.8346,83.5555-9.2099,88.4355-51.7245c2.5367-22.1013-5.9742-41.1473-15.0846-60.1322
					c-6.1145-12.7413-9.2122-25.9296-6.4632-39.9642c0.2492-1.2725,0.5324-2.5126,0.8312-3.7379l0,0l-28.8709-28.871l-28.871-28.871
					c-0.2361,2.6442-0.3696,5.3513-0.3694,8.1366c0.0026,37.5702,12.4616,70.7133,36.257,99.8712
					C887.817,323.9097,885.7849,355.8845,864.5352,375.953z"/>
				<path d="M900.4739,550.6951c-9.9711-0.2924-19.8298-4.4108-29.0354-6.6162c-0.7487,13.8323-1.5587,28.8018-2.416,44.6426
					c2.7408-1.1389,5.3068-2.1103,7.7943-3.2529c45.2379-20.7798,101.4064-12.2411,137.7528,21.9526
					c2.1151,1.9899,4.2181,3.9928,6.3255,5.991l10.941-10.941c-20.5819-31.1065-35.9777-65.4289-45.8286-103.2146
					c-10.9749-42.0973-9.293-85.4958-14.5613-128.154c-2.1392-17.322-5.871-34.7307-11.3052-51.3186l-16.4478-16.4477
					c19.2542,45.2504,12.9669,92.7228,2.2908,141.0977c-13.2014-5.249-24.5125-11.0703-36.5263-14.1416
					c-11.444-2.9257-23.6221-2.9818-35.4773-4.2995c-0.1448,1.1606-0.2893,2.3214-0.434,3.482
					c1.7248,0.4339,3.4311,0.9692,5.1769,1.2874c36.7479,6.6973,62.8252,35.123,65.8969,71.8631
					C946.8262,529.0104,926.9192,551.4708,900.4739,550.6951z"/>
				<path d="M817.1536,568.8958c0.52-0.9409,1.0507-1.8802,1.5979-2.8169c3.2502-5.5638,1.4894-7.8837-1.5979-12.1233V568.8958z"/>
				<path d="M817.1536,682.4479v34.0476h32.1843l0,0l0,0v-0.0001C835.9209,707.2335,825.0816,695.6052,817.1536,682.4479z"/>
				<path d="M817.1536,458.9892v23.2106c1.4543,1.6765,2.9286,3.3259,4.4523,4.9263c6.0275,6.3304,6.7256,12.1454,2.1127,19.3862
					c-1.5292,2.4006-2.999,6.2973-2.097,8.5491c5.3735,13.4147,11.4495,26.5477,18.3002,42.0646
					c-0.618-20.8005-5.0504-42.0001,12.3888-58.0744C838.2249,486.975,826.5949,473.6444,817.1536,458.9892z"/>
				<path d="M1056.2107,446.8344c-24.563,10.8197-44.0957,40.6482-39.058,72.7675c1.0342-2.8007,1.6624-4.2914,2.1407-5.8284
					c7.0572-22.6725,26.2565-35.8599,48.2842-33.1431c21.7496,2.6825,37.641,20.8589,39.5562,43.7073
					c0.0697,0.8315,0.172,1.6786,0.3027,2.5331l28.9031-28.9032c-1.0679-1.7434-2.1464-3.482-3.2322-5.2174v-0.0001
					l-25.7393-25.7393l-25.7394-25.7393C1072.7648,441.5472,1064.1232,443.3489,1056.2107,446.8344z"/>
				<path d="M842.4599,667.0734c0.2602,2.2838,1.5021,5.1686,3.2575,6.4559c13.7769,10.1049,27.7899,19.888,42.4001,30.2454
					c1.5087-16.7909-3.3718-31.3619-9.5192-45.5869c-1.0549-2.441-3.5881-4.4153-5.7911-6.1602
					c-12.2596-9.7108-24.6277-19.2842-34.6371-27.0936C839.3329,636.6793,840.7303,651.8953,842.4599,667.0734z"/>
				<path d="M1004.23,363.8727l19.4879,19.4879c7.2628-11.9781,18.6075-21.5647,34.2316-26.3588
					c0.9573-0.2936,1.7388-1.16,2.675-1.81C1045.7876,346.0169,1021.7615,349.9763,1004.23,363.8727z"/>
				<path d="M890.4574,250.1002c1.2253-0.2989,2.4655-0.5821,3.738-0.8313c14.0347-2.7491,27.223,0.3487,39.9643,6.4632
					c18.9849,9.1104,38.0309,17.6212,60.1323,15.0846c42.5146-4.8799,70.559-52.1436,51.7244-88.4355
					c-12.3827-23.8593-35.0627-31.4656-59.5541-33.8504c-13.1976-1.2852-26.7105,1.0731-40.0812,1.0757
					c-24.5735,0.0047-49.147-0.5259-73.7208-0.8102c-4.8754-0.0563-9.7521-0.008-14.9083,2.1921
					c11.1705,1.8437,22.2789,4.4699,33.5247,5.3648c21.9859,1.7498,44.0377,3.1244,66.0831,3.5334
					c18.4794,0.343,35.8837,3.2321,51.8286,13.1577c18.7496,11.6713,22.1561,35.215,7.1219,51.1337
					c-20.0685,21.2496-52.0432,23.2818-75.587,4.0678c-29.1579-23.7954-62.301-36.2544-99.8712-36.257
					c-2.7852-0.0002-5.4923,0.1333-8.1365,0.3694l28.871,28.871L890.4574,250.1002L890.4574,250.1002z"/>
				<path d="M817.1536,115.5944c12.7712-1.2519,26.006-0.6571,39.4241,1.9559c11.6642,2.2716,23.7476,3.6691,35.5966,3.4316
					c20.9274-0.4192,41.8763-1.8638,62.7172-3.8951c19.5463-1.905,31.2784-13.1404,35.577-32.5888
					c0.5542-2.5064,6.0186-6.0505,8.6436-5.6253c14.9258,2.4171,30.4089,3.9901,44.3686,9.3344
					c66.8455,25.5912,135.9637,33.168,206.8523,28.8178c1.0066-0.0617,1.9773-0.71,5.4741-2.0365
					c-4.2235-1.4547-6.4526-2.6637-8.7988-2.9664c-58.2755-7.5155-113.0143-25.8823-165.9723-51.1717
					c-57.3313-27.3779-118.074-42.9177-181.8116-45.6367c-2.84-0.121-5.6897-0.0154-8.4704-0.0154
					c-0.1639,1.3979-0.54,2.4852-0.2778,2.6708c17.2429,12.2121,10.5375,32.2549-10.4756,36.6781
					c-21.1531,4.4526-41.7607,3.3054-62.8469,0.0752V115.5944z"/>
				<path d="M943.6935,303.3362l16.4476,16.4477c16.588,5.4342,33.9966,9.1661,51.3186,11.3053
					c42.6582,5.2681,86.0568,3.5863,128.1541,14.5612c37.7856,9.8508,72.108,25.2467,103.2145,45.8286l10.941-10.941
					c-1.9982-2.1074-4.001-4.2104-5.9908-6.3256c-34.1938-36.3463-42.7324-92.5147-21.9526-137.7527
					c1.1426-2.4875,2.114-5.0535,3.2529-7.7943c-15.8407,0.8572-30.8103,1.6673-44.6426,2.4159
					c2.2053,9.2056,6.3237,19.0643,6.6162,29.0354c0.7756,26.4454-21.6847,46.3523-48.0698,44.1466
					c-36.7401-3.0717-65.1659-29.149-71.8632-65.8969c-0.3181-1.7458-0.8534-3.4521-1.2874-5.177
					c-1.1606,0.1447-2.3214,0.2892-3.4821,0.434c1.3177,11.8552,1.3739,24.0332,4.2996,35.4772
					c3.0713,12.0139,8.8926,23.325,14.1416,36.5263C1036.4163,316.303,988.9438,322.5904,943.6935,303.3362z"/>
				<path d="M1356.8527,176.5542c-11.4799-10.5683-23.8081-20.2849-36.5015-29.716c-19.6315-14.5863-39.1046-17.7894-61.6466-9.4303
					c-13.531,5.0178-27.4551,9.1808-41.4869,12.5381c-5.3535,1.2808-11.8182,0.2408-17.2313-1.4682
					c-19.5443-6.171-38.7726-13.34-58.297-19.5798c-8.2107-2.6241-15.6593-1.2011-23.179,4.6566
					c-18.0615,14.0694-39.5051,20.0344-62.5685,22.7021c32.7445,10.8156,60.3903,28.7809,83.467,55.6967
					c16.0742-17.4391,37.2739-13.0068,58.0743-12.3887c-15.517-6.8508-28.6499-12.9268-42.0646-18.3002
					c-2.2518-0.9021-6.1484,0.5678-8.5491,2.097c-7.241,4.6129-13.0559,3.9148-19.3862-2.1127
					c-7.4946-7.1361-15.903-13.3126-24.4863-20.3748c15.7797-11.5357,31.6432-20.0112,50.0668-10.4414
					c14.2289,7.3909,27.6541,16.5276,40.6722,25.9447c4.6208,3.3424,6.8868,5.413,12.7001,2.0171
					c55.0465-32.1592,117.5898-16.9668,150.4165,30.5864l0,0l0.0001,0v0v-32.4265H1356.8527z"/>
				<path d="M1133.1074,492.7502c1.7354,1.0858,3.4741,2.1643,5.2175,3.2322l28.9031-28.9032
					c-0.8545-0.1307-1.7015-0.233-2.5331-0.3026c-22.8484-1.9152-41.0249-17.8066-43.7074-39.5562
					c-2.7168-22.0277,10.4707-41.227,33.1432-48.2841c1.537-0.4784,3.0277-1.1066,5.8284-2.1407
					c-32.1193-5.0378-61.9478,14.4949-72.7675,39.058c-3.4855,7.9124-5.2871,16.5542-5.5627,25.4182l25.7393,25.7393
					L1133.1074,492.7502L1133.1074,492.7502z"/>
				<path d="M1298.545,238.241c14.225,6.1475,28.796,11.028,45.5869,9.5193c-10.3573-14.6103-20.1405-28.6232-30.2454-42.4002
					c-1.2874-1.7554-4.1721-2.9972-6.4559-3.2575c-15.1781-1.7296-30.394-3.127-42.1394-4.2898
					c7.8093,10.0095,17.3828,22.3775,27.0936,34.6372C1294.1296,234.653,1296.104,237.1861,1298.545,238.241z"/>
			</g>
		</g>
		<g>
			<g>
				<path d="M883.7642,817.1536c13.1573-7.928,24.7856-18.7673,34.0475-32.1843v32.1843H883.7642z"/>
				<polygon points="917.8118,784.9694 917.8118,784.9694 917.8118,784.9694 				"/>
				<path d="M874.8457,788.5898c-1.2874,1.7554-4.1722,2.9973-6.4559,3.2575c-9.9607,1.135-19.931,2.1263-28.9326,3.0027
					l47.9927-47.9927c5.6448-0.9093,11.493-1.22,17.6411-0.6676C894.7337,760.8,884.9505,774.813,874.8457,788.5898z"/>
				<path d="M1522.2852,167.61c-0.3027,2.3461-1.5116,4.5753-2.9664,8.7988c-1.3264-3.4967-1.9747-4.4675-2.0364-5.4741
					c-1.0908-17.7753-1.4308-35.4393-0.9258-52.984l20.3855-20.3855C1530.2791,120.3995,1525.3678,143.7068,1522.2852,167.61z"/>
				<path d="M1487.4691,240.953c-9.4312,12.6933-19.1477,25.0217-29.7161,36.5015v-0.0001h-32.4265
					c37.132-25.6328,54.5317-69.3845,45.064-113.5378l16.4242-16.4242c2.8718,10.7505,6.2224,21.3992,10.0846,31.8139
					C1505.2584,201.8484,1502.0553,221.3215,1487.4691,240.953z"/>
				<polygon points="1425.3265,277.4546 1425.3265,277.4546 1425.3265,277.4546 				"/>
				<path d="M1432.2046,228.0325c-0.2603,2.2837-1.5021,5.1685-3.2574,6.4559c-13.777,10.1048-27.7899,19.888-42.4001,30.2453
					c-0.5525-6.148-0.2418-11.9963,0.6676-17.6411l47.9927-47.9927C1434.3308,208.1016,1433.3396,218.0719,1432.2046,228.0325z"/>
				<path d="M1214.0399,638.7581c0.9364-0.65,1.7179-1.5163,2.6752-1.81c15.624-4.794,26.9688-14.3807,34.2314-26.3587
					l19.4879,19.4879C1252.903,643.9738,1228.877,647.933,1214.0399,638.7581z"/>
				<path d="M1258.3542,769.772c-13.563,14.361-12.1124,34.9246,2.067,47.3816h-28.4862c-1.1608-1.7579-2.2623-3.6107-3.287-5.5848
					c-18.8346-36.2919,9.21-83.5555,51.7245-88.4355c22.1013-2.5367,41.1473,5.9742,60.1323,15.0846
					c12.7412,6.1144,25.9294,9.2122,39.9642,6.4632c1.2725-0.2492,2.5126-0.5324,3.7379-0.8313l0,0l28.871,28.871l28.871,28.871
					c-2.6443,0.2361-5.3513,0.3696-8.1366,0.3694c-37.5702-0.0026-70.7133-12.4616-99.8711-36.257
					C1310.3975,746.4902,1278.4227,748.5224,1258.3542,769.772z"/>
				<path d="M1083.6122,733.8334c0.2924,9.9711,4.4108,19.8298,6.6162,29.0354c-13.8323,0.7487-28.8019,1.5587-44.6426,2.4159
					c1.1389-2.7407,2.1102-5.3067,3.2529-7.7943c20.7798-45.238,12.2412-101.4064-21.9526-137.7528
					c-1.99-2.1151-3.9928-4.2181-5.991-6.3256l10.941-10.941c31.1064,20.5819,65.4288,35.9777,103.2146,45.8286
					c42.0973,10.9749,85.4957,9.293,128.1539,14.5613c17.322,2.1392,34.7307,5.871,51.3187,11.3051l16.4476,16.4478
					c-45.2504-19.2542-92.7229-12.9668-141.0977-2.2908c5.2489,13.2014,11.0703,24.5125,14.1416,36.5262
					c2.9257,11.4441,2.9818,23.6222,4.2996,35.4774c-1.1606,0.1448-2.3214,0.2893-3.4821,0.434
					c-0.434-1.7248-0.9692-3.4311-1.2874-5.1769c-6.6974-36.7479-35.123-62.8253-71.8632-65.897
					C1105.2968,687.481,1082.8364,707.388,1083.6122,733.8334z"/>
				<path d="M1065.4115,817.1536c0.9409-0.5199,1.8801-1.0507,2.8169-1.5978c5.5637-3.2502,7.8837-1.4894,12.1233,1.5978H1065.4115z
					"/>
				<path d="M951.8594,817.1536h-34.0476v-32.1843l0,0l0,0h0.0001C927.0737,798.3864,938.702,809.2256,951.8594,817.1536z"/>
				<path d="M1175.318,817.1536h-23.2106c-1.6765-1.4543-3.3259-2.9285-4.9263-4.4523c-6.3303-6.0275-12.1454-6.7256-19.3862-2.1127
					c-2.4006,1.5292-6.2974,2.999-8.5491,2.097c-13.4147-5.3735-26.5477-11.4495-42.0647-18.3002
					c20.8005,0.618,42.0002,5.0504,58.0745-12.3888C1147.3322,796.0824,1160.6628,807.7123,1175.318,817.1536z"/>
				<path d="M1187.4729,578.0966c-10.8197,24.563-40.6483,44.0956-72.7676,39.058c2.8008-1.0341,4.2915-1.6624,5.8285-2.1407
					c22.6725-7.0571,35.8599-26.2564,33.1431-48.2842c-2.6825-21.7496-20.8589-37.641-43.7073-39.5562
					c-0.8315-0.0697-1.6786-0.172-2.5332-0.3027l28.9032-28.9031c1.7434,1.0678,3.4821,2.1463,5.2174,3.2322h0.0001l25.7393,25.7392
					l25.7393,25.7394C1192.76,561.5424,1190.9583,570.1841,1187.4729,578.0966z"/>
				<path d="M967.2338,791.8474c-2.2838-0.2602-5.1686-1.5021-6.4559-3.2575c-10.1048-13.7769-19.888-27.7899-30.2453-42.4001
					c16.7908-1.5087,31.3619,3.3718,45.5869,9.5192c2.4411,1.0549,4.4153,3.5881,6.1602,5.791
					c9.7108,12.2597,19.2843,24.6277,27.0936,34.6372C997.6279,794.9743,982.412,793.577,967.2338,791.8474z"/>
				<path d="M1270.4344,630.0772l-19.4879-19.4879c11.9781-7.2628,21.5648-18.6075,26.3588-34.2315
					c0.2937-0.9573,1.16-1.7387,1.8101-2.6751C1288.2903,588.5197,1284.3309,612.5457,1270.4344,630.0772z"/>
				<path d="M1384.207,743.8498c0.2988-1.2253,0.582-2.4654,0.8312-3.7379c2.7491-14.0347-0.3486-27.223-6.4631-39.9643
					c-9.1104-18.9849-17.6212-38.0309-15.0846-60.1323c4.8799-42.5146,52.1436-70.5591,88.4354-51.7245
					c23.8594,12.3827,31.4657,35.0627,33.8505,59.5541c1.2852,13.1976-1.0731,26.7106-1.0757,40.0812
					c-0.0048,24.5735,0.526,49.147,0.8102,73.7208c0.0563,4.8754,0.0081,9.7521-2.192,14.9082
					c-1.8438-11.1704-4.47-22.2789-5.3649-33.5247c-1.7498-21.986-3.1244-44.0377-3.5334-66.0831
					c-0.3429-18.4794-3.2321-35.8837-13.1576-51.8285c-11.6714-18.7496-35.215-22.156-51.1338-7.1219
					c-21.2496,20.0685-23.2817,52.0432-4.0677,75.587c23.7953,29.1579,36.2544,62.301,36.257,99.8712
					c0.0001,2.7852-0.1333,5.4924-0.3694,8.1366l-28.871-28.871L1384.207,743.8498L1384.207,743.8498z"/>
				<path d="M1518.7128,817.1536c1.252-12.7711,0.6571-26.006-1.9559-39.424c-2.2716-11.6642-3.6691-23.7477-3.4315-35.5966
					c0.4192-20.9274,1.8638-41.8763,3.8951-62.7172c1.9049-19.5463,13.1404-31.2784,32.5887-35.577
					c2.5063-0.5542,6.0505-6.0187,5.6254-8.6436c-2.4171-14.9258-3.9901-30.4089-9.3345-44.3686
					c-25.5912-66.8455-33.168-135.9638-28.8177-206.8523c0.0616-1.0066,0.71-1.9773,2.0364-5.4741
					c1.4548,4.2235,2.6637,6.4527,2.9664,8.7988c7.5154,58.2755,25.8823,113.0143,51.1716,165.9723
					c27.3779,57.3314,42.9177,118.074,45.6367,181.8117c0.1211,2.84,0.0154,5.6897,0.0154,8.4703
					c-1.3978,0.1639-2.4851,0.5401-2.6708,0.2778c-12.212-17.243-32.2549-10.5375-36.678,10.4756
					c-4.4528,21.1531-3.3054,41.7607-0.0753,62.8468H1518.7128z"/>
				<path d="M1330.9711,690.6138l-16.4476-16.4477c-5.4343-16.588-9.1661-33.9966-11.3053-51.3186
					c-5.2682-42.6582-3.5863-86.0567-14.5613-128.154c-9.8508-37.7857-25.2467-72.1081-45.8286-103.2146l10.941-10.941
					c2.1074,1.9982,4.2104,4.001,6.3256,5.9909c36.3463,34.1938,92.5148,42.7324,137.7527,21.9526
					c2.4875-1.1427,5.0536-2.114,7.7943-3.253c-0.8572,15.8408-1.6672,30.8103-2.4159,44.6426
					c-9.2056-2.2054-19.0642-6.3238-29.0354-6.6162c-26.4453-0.7757-46.3523,21.6846-44.1466,48.0699
					c3.0717,36.7401,29.1489,65.1658,65.897,71.8631c1.7458,0.3182,3.4521,0.8535,5.177,1.2874
					c-0.1448,1.1606-0.2893,2.3214-0.4341,3.4821c-11.8551-1.3177-24.0332-1.3739-35.4773-4.2996
					c-12.0138-3.0713-23.3248-8.8926-36.5262-14.1416C1318.0042,597.8909,1311.7168,645.3633,1330.9711,690.6138z"/>
				<path d="M1457.7531,277.4546c10.5684,11.4798,20.2849,23.8081,29.7161,36.5015c14.5862,19.6315,17.7893,39.1047,9.4302,61.6466
					c-5.0177,13.5309-9.1808,27.455-12.538,41.4869c-1.2809,5.3535-0.2408,11.8183,1.4681,17.2313
					c6.1709,19.5444,13.34,38.7726,19.5798,58.2971c2.624,8.2107,1.201,15.6593-4.6566,23.1789
					c-14.0695,18.0615-20.0344,39.5052-22.7021,62.5685c-10.8156-32.7446-28.7809-60.3903-55.6967-83.467
					c17.4391-16.0743,13.0068-37.274,12.3887-58.0744c6.8508,15.517,12.9269,28.65,18.3003,42.0646
					c0.9021,2.2518-0.5677,6.1485-2.097,8.5491c-4.6128,7.2409-3.9148,13.0559,2.1128,19.3862
					c7.136,7.4946,13.3125,15.9029,20.3748,24.4863c11.5358-15.7797,20.0111-31.6432,10.4414-50.0667
					c-7.391-14.2289-16.5277-27.654-25.9447-40.6723c-3.3424-4.6208-5.413-6.8869-2.0171-12.7
					c32.1592-55.0466,16.9668-117.5899-30.5864-150.4166l0,0v-0.0001l0,0L1457.7531,277.4546L1457.7531,277.4546z"/>
				<path d="M1141.557,501.1998c-1.0858-1.7354-2.1643-3.4741-3.2322-5.2175l28.9032-28.9031
					c0.1307,0.8545,0.2329,1.7016,0.3026,2.5331c1.9152,22.8484,17.8066,41.0248,39.5563,43.7073
					c22.0276,2.7168,41.2269-10.4707,48.2841-33.1431c0.4784-1.537,1.1067-3.0277,2.1407-5.8284
					c5.0377,32.1193-14.4949,61.9478-39.058,72.7675c-7.9124,3.4854-16.5541,5.2871-25.4181,5.5627l-25.7393-25.7393
					l-25.7393-25.7392H1141.557z"/>
				<path d="M1396.0663,335.7622c-6.1476-14.225-11.0281-28.7961-9.5193-45.5869c14.6102,10.3573,28.6232,20.1405,42.4001,30.2453
					c1.7554,1.2874,2.9972,4.1721,3.2574,6.4559c1.7296,15.1782,3.127,30.3941,4.2898,42.1394
					c-10.0094-7.8093-22.3776-17.3828-34.6372-27.0936C1399.6543,340.1776,1397.1211,338.2032,1396.0663,335.7622z"/>
			</g>
		</g>
	</g>
	<g>
		<g>
			<g>
				<path d="M750.543,817.1536c-13.1574-7.928-24.7856-18.7673-34.0475-32.1843v32.1843H750.543z"/>
				<polygon points="716.4954,784.9694 716.4955,784.9694 716.4954,784.9694 				"/>
				<path d="M759.4615,788.5898c1.2874,1.7554,4.1721,2.9973,6.4559,3.2575c9.9607,1.135,19.931,2.1263,28.9327,3.0027
					l-47.9927-47.9927c-5.6448-0.9093-11.493-1.22-17.6411-0.6676C739.5735,760.8,749.3567,774.813,759.4615,788.5898z"/>
				<path d="M112.0221,167.61c0.3027,2.3461,1.5116,4.5753,2.9664,8.7988c1.3265-3.4967,1.9748-4.4675,2.0365-5.4741
					c1.0908-17.7753,1.4308-35.4393,0.9258-52.984L97.5652,97.5652C104.0281,120.3995,108.9394,143.7068,112.0221,167.61z"/>
				<path d="M146.8382,240.953c9.4311,12.6933,19.1477,25.0217,29.716,36.5015v-0.0001h32.4265
					c-37.1319-25.6328-54.5318-69.3845-45.0639-113.5378l-16.4242-16.4242c-2.8717,10.7505-6.2224,21.3992-10.0846,31.8139
					C129.0488,201.8484,132.2519,221.3215,146.8382,240.953z"/>
				<polygon points="208.9807,277.4546 208.9807,277.4546 208.9807,277.4546 				"/>
				<path d="M202.1026,228.0325c0.2603,2.2837,1.502,5.1685,3.2575,6.4559c13.7769,10.1048,27.7899,19.888,42.4002,30.2453
					c0.5524-6.148,0.2417-11.9963-0.6676-17.6411l-47.9927-47.9927C199.9764,208.1016,200.9676,218.0719,202.1026,228.0325z"/>
				<path d="M420.2673,638.7581c-0.9364-0.65-1.7178-1.5163-2.6751-1.81c-15.6241-4.794-26.9688-14.3807-34.2315-26.3587
					l-19.4879,19.4879C381.4043,643.9738,405.4303,647.933,420.2673,638.7581z"/>
				<path d="M375.953,769.772c13.563,14.361,12.1124,34.9246-2.067,47.3816h28.4862c1.1608-1.7579,2.2623-3.6107,3.287-5.5848
					c18.8346-36.2919-9.2099-83.5555-51.7245-88.4355c-22.1013-2.5367-41.1473,5.9742-60.1322,15.0846
					c-12.7413,6.1144-25.9296,9.2122-39.9642,6.4632c-1.2725-0.2492-2.5126-0.5324-3.7379-0.8313l0,0l-28.871,28.871l-28.871,28.871
					c2.6442,0.2361,5.3513,0.3696,8.1366,0.3694c37.5702-0.0026,70.7133-12.4616,99.8712-36.257
					C323.9097,746.4902,355.8845,748.5224,375.953,769.772z"/>
				<path d="M550.6951,733.8334c-0.2924,9.9711-4.4108,19.8298-6.6162,29.0354c13.8323,0.7487,28.8018,1.5587,44.6426,2.4159
					c-1.1389-2.7407-2.1103-5.3067-3.2529-7.7943c-20.7798-45.238-12.2411-101.4064,21.9526-137.7528
					c1.9899-2.1151,3.9928-4.2181,5.991-6.3256l-10.941-10.941c-31.1065,20.5819-65.4289,35.9777-103.2146,45.8286
					c-42.0973,10.9749-85.4958,9.293-128.154,14.5613c-17.322,2.1392-34.7307,5.871-51.3186,11.3051l-16.4477,16.4478
					c45.2504-19.2542,92.7228-12.9668,141.0977-2.2908c-5.249,13.2014-11.0703,24.5125-14.1416,36.5262
					c-2.9257,11.4441-2.9818,23.6222-4.2995,35.4774c1.1606,0.1448,2.3214,0.2893,3.482,0.434
					c0.4339-1.7248,0.9692-3.4311,1.2874-5.1769c6.6973-36.7479,35.123-62.8253,71.8631-65.897
					C529.0104,687.481,551.4708,707.388,550.6951,733.8334z"/>
				<path d="M568.8958,817.1536c-0.9409-0.5199-1.8802-1.0507-2.8169-1.5978c-5.5638-3.2502-7.8837-1.4894-12.1233,1.5978H568.8958z
					"/>
				<path d="M682.4479,817.1536h34.0476v-32.1843l0,0l0,0h-0.0001C707.2335,798.3864,695.6052,809.2256,682.4479,817.1536z"/>
				<path d="M458.9892,817.1536h23.2106c1.6765-1.4543,3.3259-2.9285,4.9263-4.4523c6.3304-6.0275,12.1454-6.7256,19.3862-2.1127
					c2.4006,1.5292,6.2973,2.999,8.5491,2.097c13.4147-5.3735,26.5477-11.4495,42.0646-18.3002
					c-20.8005,0.618-42.0001,5.0504-58.0744-12.3888C486.975,796.0824,473.6444,807.7123,458.9892,817.1536z"/>
				<path d="M446.8344,578.0966c10.8197,24.563,40.6482,44.0956,72.7675,39.058c-2.8007-1.0341-4.2914-1.6624-5.8284-2.1407
					c-22.6725-7.0571-35.8599-26.2564-33.1431-48.2842c2.6825-21.7496,20.8589-37.641,43.7073-39.5562
					c0.8315-0.0697,1.6786-0.172,2.5331-0.3027l-28.9032-28.9031c-1.7434,1.0678-3.482,2.1463-5.2174,3.2322h-0.0001
					l-25.7393,25.7392l-25.7393,25.7394C441.5472,561.5424,443.3489,570.1841,446.8344,578.0966z"/>
				<path d="M667.0734,791.8474c2.2838-0.2602,5.1686-1.5021,6.4559-3.2575c10.1049-13.7769,19.888-27.7899,30.2454-42.4001
					c-16.7909-1.5087-31.3619,3.3718-45.5869,9.5192c-2.441,1.0549-4.4153,3.5881-6.1602,5.791
					c-9.7108,12.2597-19.2842,24.6277-27.0936,34.6372C636.6793,794.9743,651.8953,793.577,667.0734,791.8474z"/>
				<path d="M363.8727,630.0772l19.4879-19.4879c-11.9781-7.2628-21.5647-18.6075-26.3588-34.2315
					c-0.2936-0.9573-1.16-1.7387-1.81-2.6751C346.0169,588.5197,349.9763,612.5457,363.8727,630.0772z"/>
				<path d="M250.1002,743.8498c-0.2989-1.2253-0.5821-2.4654-0.8313-3.7379c-2.7491-14.0347,0.3487-27.223,6.4632-39.9643
					c9.1104-18.9849,17.6212-38.0309,15.0846-60.1323c-4.8799-42.5146-52.1436-70.5591-88.4355-51.7245
					c-23.8593,12.3827-31.4656,35.0627-33.8504,59.5541c-1.2852,13.1976,1.0731,26.7106,1.0757,40.0812
					c0.0047,24.5735-0.5259,49.147-0.8102,73.7208c-0.0563,4.8754-0.008,9.7521,2.1921,14.9082
					c1.8437-11.1704,4.4699-22.2789,5.3648-33.5247c1.7498-21.986,3.1244-44.0377,3.5334-66.0831
					c0.343-18.4794,3.2321-35.8837,13.1577-51.8285c11.6713-18.7496,35.215-22.156,51.1337-7.1219
					c21.2496,20.0685,23.2818,52.0432,4.0678,75.587c-23.7954,29.1579-36.2544,62.301-36.257,99.8712
					c-0.0002,2.7852,0.1333,5.4924,0.3694,8.1366l28.871-28.871L250.1002,743.8498L250.1002,743.8498z"/>
				<path d="M115.5944,817.1536c-1.2519-12.7711-0.6571-26.006,1.9559-39.424c2.2716-11.6642,3.6691-23.7477,3.4316-35.5966
					c-0.4192-20.9274-1.8638-41.8763-3.8951-62.7172c-1.905-19.5463-13.1404-31.2784-32.5888-35.577
					c-2.5064-0.5542-6.0505-6.0187-5.6253-8.6436c2.4171-14.9258,3.9901-30.4089,9.3344-44.3686
					c25.5912-66.8455,33.168-135.9638,28.8178-206.8523c-0.0617-1.0066-0.71-1.9773-2.0365-5.4741
					c-1.4547,4.2235-2.6637,6.4527-2.9664,8.7988c-7.5155,58.2755-25.8823,113.0143-51.1717,165.9723
					c-27.3779,57.3314-42.9177,118.074-45.6367,181.8117c-0.121,2.84-0.0154,5.6897-0.0154,8.4703
					c1.3979,0.1639,2.4852,0.5401,2.6708,0.2778c12.2121-17.243,32.2549-10.5375,36.6781,10.4756
					c4.4526,21.1531,3.3054,41.7607,0.0752,62.8468H115.5944z"/>
				<path d="M303.3362,690.6138l16.4477-16.4477c5.4342-16.588,9.1661-33.9966,11.3053-51.3186
					c5.2681-42.6582,3.5863-86.0567,14.5612-128.154c9.8508-37.7857,25.2467-72.1081,45.8286-103.2146l-10.941-10.941
					c-2.1074,1.9982-4.2104,4.001-6.3256,5.9909c-36.3463,34.1938-92.5147,42.7324-137.7527,21.9526
					c-2.4875-1.1427-5.0535-2.114-7.7943-3.253c0.8572,15.8408,1.6673,30.8103,2.4159,44.6426
					c9.2056-2.2054,19.0643-6.3238,29.0354-6.6162c26.4454-0.7757,46.3523,21.6846,44.1466,48.0699
					c-3.0717,36.7401-29.149,65.1658-65.8969,71.8631c-1.7458,0.3182-3.4521,0.8535-5.177,1.2874
					c0.1447,1.1606,0.2892,2.3214,0.434,3.4821c11.8552-1.3177,24.0332-1.3739,35.4772-4.2996
					c12.0139-3.0713,23.325-8.8926,36.5263-14.1416C316.303,597.8909,322.5904,645.3633,303.3362,690.6138z"/>
				<path d="M176.5542,277.4546c-10.5683,11.4798-20.2849,23.8081-29.716,36.5015c-14.5863,19.6315-17.7894,39.1047-9.4303,61.6466
					c5.0178,13.5309,9.1808,27.455,12.5381,41.4869c1.2808,5.3535,0.2408,11.8183-1.4682,17.2313
					c-6.171,19.5444-13.34,38.7726-19.5798,58.2971c-2.6241,8.2107-1.2011,15.6593,4.6566,23.1789
					c14.0694,18.0615,20.0344,39.5052,22.7021,62.5685c10.8156-32.7446,28.7809-60.3903,55.6967-83.467
					c-17.4391-16.0743-13.0068-37.274-12.3887-58.0744c-6.8508,15.517-12.9268,28.65-18.3002,42.0646
					c-0.9021,2.2518,0.5678,6.1485,2.097,8.5491c4.6129,7.2409,3.9148,13.0559-2.1127,19.3862
					c-7.1361,7.4946-13.3126,15.9029-20.3748,24.4863c-11.5357-15.7797-20.0112-31.6432-10.4414-50.0667
					c7.3909-14.2289,16.5276-27.654,25.9447-40.6723c3.3424-4.6208,5.413-6.8869,2.0171-12.7
					c-32.1592-55.0466-16.9668-117.5899,30.5864-150.4166l0,0l0-0.0001h0L176.5542,277.4546L176.5542,277.4546z"/>
				<path d="M492.7502,501.1998c1.0858-1.7354,2.1643-3.4741,3.2322-5.2175l-28.9032-28.9031
					c-0.1307,0.8545-0.233,1.7016-0.3026,2.5331c-1.9152,22.8484-17.8066,41.0248-39.5562,43.7073
					c-22.0277,2.7168-41.227-10.4707-48.2841-33.1431c-0.4784-1.537-1.1066-3.0277-2.1407-5.8284
					c-5.0378,32.1193,14.4949,61.9478,39.058,72.7675c7.9124,3.4854,16.5542,5.2871,25.4182,5.5627l25.7393-25.7393
					L492.7502,501.1998L492.7502,501.1998z"/>
				<path d="M238.241,335.7622c6.1475-14.225,11.028-28.7961,9.5193-45.5869c-14.6103,10.3573-28.6232,20.1405-42.4002,30.2453
					c-1.7554,1.2874-2.9972,4.1721-3.2575,6.4559c-1.7296,15.1782-3.127,30.3941-4.2898,42.1394
					c10.0095-7.8093,22.3775-17.3828,34.6372-27.0936C234.653,340.1776,237.1861,338.2032,238.241,335.7622z"/>
			</g>
		</g>
		<g>
			<g>
				<path d="M817.1536,750.543c-7.928-13.1574-18.7673-24.7856-32.1843-34.0475h32.1843V750.543z"/>
				<polygon points="784.9694,716.4954 784.9694,716.4955 784.9694,716.4954 				"/>
				<path d="M788.5898,759.4615c1.7554,1.2874,2.9973,4.1721,3.2575,6.4559c1.135,9.9607,2.1263,19.931,3.0027,28.9327
					l-47.9927-47.9927c-0.9093-5.6448-1.22-11.493-0.6676-17.6411C760.8,739.5735,774.813,749.3567,788.5898,759.4615z"/>
				<path d="M167.61,112.0221c2.3461,0.3027,4.5753,1.5116,8.7988,2.9664c-3.4967,1.3265-4.4675,1.9748-5.4741,2.0365
					c-17.7753,1.0908-35.4393,1.4308-52.984,0.9258L97.5652,97.5652C120.3995,104.0281,143.7068,108.9394,167.61,112.0221z"/>
				<path d="M240.953,146.8382c12.6933,9.4311,25.0217,19.1477,36.5015,29.716h-0.0001v32.4265
					c-25.6328-37.1319-69.3845-54.5318-113.5378-45.0639l-16.4242-16.4242c10.7505-2.8717,21.3992-6.2224,31.8139-10.0846
					C201.8484,129.0488,221.3215,132.2519,240.953,146.8382z"/>
				<polygon points="277.4546,208.9807 277.4546,208.9807 277.4546,208.9807 				"/>
				<path d="M228.0325,202.1026c2.2837,0.2603,5.1685,1.502,6.4559,3.2575c10.1048,13.7769,19.888,27.7899,30.2453,42.4002
					c-6.148,0.5524-11.9963,0.2417-17.6411-0.6676l-47.9927-47.9927C208.1016,199.9764,218.0719,200.9676,228.0325,202.1026z"/>
				<path d="M638.7581,420.2673c-0.65-0.9364-1.5163-1.7178-1.81-2.6751c-4.794-15.6241-14.3807-26.9688-26.3587-34.2315
					l19.4879-19.4879C643.9738,381.4043,647.933,405.4303,638.7581,420.2673z"/>
				<path d="M769.772,375.953c14.361,13.563,34.9246,12.1124,47.3816-2.067v28.4862c-1.7579,1.1608-3.6107,2.2623-5.5848,3.287
					c-36.2919,18.8346-83.5555-9.2099-88.4355-51.7245c-2.5367-22.1013,5.9742-41.1473,15.0846-60.1322
					c6.1144-12.7413,9.2122-25.9296,6.4632-39.9642c-0.2492-1.2725-0.5324-2.5126-0.8313-3.7379l0,0l28.871-28.871l28.871-28.871
					c0.2361,2.6442,0.3696,5.3513,0.3694,8.1366c-0.0026,37.5702-12.4616,70.7133-36.257,99.8712
					C746.4902,323.9097,748.5224,355.8845,769.772,375.953z"/>
				<path d="M733.8334,550.6951c9.9711-0.2924,19.8298-4.4108,29.0354-6.6162c0.7487,13.8323,1.5587,28.8018,2.4159,44.6426
					c-2.7407-1.1389-5.3067-2.1103-7.7943-3.2529c-45.238-20.7798-101.4064-12.2411-137.7528,21.9526
					c-2.1151,1.9899-4.2181,3.9928-6.3256,5.991l-10.941-10.941c20.5819-31.1065,35.9777-65.4289,45.8286-103.2146
					c10.9749-42.0973,9.293-85.4958,14.5613-128.154c2.1392-17.322,5.871-34.7307,11.3051-51.3186l16.4478-16.4477
					c-19.2542,45.2504-12.9668,92.7228-2.2908,141.0977c13.2014-5.249,24.5125-11.0703,36.5262-14.1416
					c11.4441-2.9257,23.6222-2.9818,35.4774-4.2995c0.1448,1.1606,0.2893,2.3214,0.434,3.482
					c-1.7248,0.4339-3.4311,0.9692-5.1769,1.2874c-36.7479,6.6973-62.8253,35.123-65.897,71.8631
					C687.481,529.0104,707.388,551.4708,733.8334,550.6951z"/>
				<path d="M817.1536,568.8958c-0.5199-0.9409-1.0507-1.8802-1.5978-2.8169c-3.2502-5.5638-1.4894-7.8837,1.5978-12.1233V568.8958z
					"/>
				<path d="M817.1536,682.4479v34.0476h-32.1843l0,0l0,0v-0.0001C798.3864,707.2335,809.2256,695.6052,817.1536,682.4479z"/>
				<path d="M817.1536,458.9892v23.2106c-1.4543,1.6765-2.9285,3.3259-4.4523,4.9263c-6.0275,6.3304-6.7256,12.1454-2.1127,19.3862
					c1.5292,2.4006,2.999,6.2973,2.097,8.5491c-5.3735,13.4147-11.4495,26.5477-18.3002,42.0646
					c0.618-20.8005,5.0504-42.0001-12.3888-58.0744C796.0824,486.975,807.7123,473.6444,817.1536,458.9892z"/>
				<path d="M578.0966,446.8344c24.563,10.8197,44.0956,40.6482,39.058,72.7675c-1.0341-2.8007-1.6624-4.2914-2.1407-5.8284
					c-7.0571-22.6725-26.2564-35.8599-48.2842-33.1431c-21.7496,2.6825-37.641,20.8589-39.5562,43.7073
					c-0.0697,0.8315-0.172,1.6786-0.3027,2.5331l-28.9031-28.9032c1.0678-1.7434,2.1463-3.482,3.2322-5.2174v-0.0001
					l25.7392-25.7393l25.7394-25.7393C561.5424,441.5472,570.1841,443.3489,578.0966,446.8344z"/>
				<path d="M791.8474,667.0734c-0.2602,2.2838-1.5021,5.1686-3.2575,6.4559c-13.7769,10.1049-27.7899,19.888-42.4001,30.2454
					c-1.5087-16.7909,3.3718-31.3619,9.5192-45.5869c1.0549-2.441,3.5881-4.4153,5.791-6.1602
					c12.2597-9.7108,24.6277-19.2842,34.6372-27.0936C794.9743,636.6793,793.577,651.8953,791.8474,667.0734z"/>
				<path d="M630.0772,363.8727l-19.4879,19.4879c-7.2628-11.9781-18.6075-21.5647-34.2315-26.3588
					c-0.9573-0.2936-1.7387-1.16-2.6751-1.81C588.5197,346.0169,612.5457,349.9763,630.0772,363.8727z"/>
				<path d="M743.8498,250.1002c-1.2253-0.2989-2.4654-0.5821-3.7379-0.8313c-14.0347-2.7491-27.223,0.3487-39.9643,6.4632
					c-18.9849,9.1104-38.0309,17.6212-60.1323,15.0846c-42.5146-4.8799-70.5591-52.1436-51.7245-88.4355
					c12.3827-23.8593,35.0627-31.4656,59.5541-33.8504c13.1976-1.2852,26.7106,1.0731,40.0812,1.0757
					c24.5735,0.0047,49.147-0.5259,73.7208-0.8102c4.8754-0.0563,9.7521-0.008,14.9082,2.1921
					c-11.1704,1.8437-22.2789,4.4699-33.5247,5.3648c-21.986,1.7498-44.0377,3.1244-66.0831,3.5334
					c-18.4794,0.343-35.8837,3.2321-51.8285,13.1577c-18.7496,11.6713-22.156,35.215-7.1219,51.1337
					c20.0685,21.2496,52.0432,23.2818,75.587,4.0678c29.1579-23.7954,62.301-36.2544,99.8712-36.257
					c2.7852-0.0002,5.4924,0.1333,8.1366,0.3694l-28.871,28.871L743.8498,250.1002L743.8498,250.1002z"/>
				<path d="M817.1536,115.5944c-12.7711-1.2519-26.006-0.6571-39.424,1.9559c-11.6642,2.2716-23.7477,3.6691-35.5966,3.4316
					c-20.9274-0.4192-41.8763-1.8638-62.7172-3.8951c-19.5463-1.905-31.2784-13.1404-35.577-32.5888
					c-0.5542-2.5064-6.0187-6.0505-8.6436-5.6253c-14.9258,2.4171-30.4089,3.9901-44.3686,9.3344
					c-66.8455,25.5912-135.9638,33.168-206.8523,28.8178c-1.0066-0.0617-1.9773-0.71-5.4741-2.0365
					c4.2235-1.4547,6.4527-2.6637,8.7988-2.9664c58.2755-7.5155,113.0143-25.8823,165.9723-51.1717
					c57.3314-27.3779,118.074-42.9177,181.8117-45.6367c2.84-0.121,5.6897-0.0154,8.4703-0.0154
					c0.1639,1.3979,0.5401,2.4852,0.2778,2.6708c-17.243,12.2121-10.5375,32.2549,10.4756,36.6781
					c21.1531,4.4526,41.7607,3.3054,62.8468,0.0752V115.5944z"/>
				<path d="M690.6138,303.3362l-16.4477,16.4477c-16.588,5.4342-33.9966,9.1661-51.3186,11.3053
					c-42.6582,5.2681-86.0567,3.5863-128.154,14.5612c-37.7857,9.8508-72.1081,25.2467-103.2146,45.8286l-10.941-10.941
					c1.9982-2.1074,4.001-4.2104,5.9909-6.3256c34.1938-36.3463,42.7324-92.5147,21.9526-137.7527
					c-1.1427-2.4875-2.114-5.0535-3.253-7.7943c15.8408,0.8572,30.8103,1.6673,44.6426,2.4159
					c-2.2054,9.2056-6.3238,19.0643-6.6162,29.0354c-0.7757,26.4454,21.6846,46.3523,48.0699,44.1466
					c36.7401-3.0717,65.1658-29.149,71.8631-65.8969c0.3182-1.7458,0.8535-3.4521,1.2874-5.177
					c1.1606,0.1447,2.3214,0.2892,3.4821,0.434c-1.3177,11.8552-1.3739,24.0332-4.2996,35.4772
					c-3.0713,12.0139-8.8926,23.325-14.1416,36.5263C597.8909,316.303,645.3633,322.5904,690.6138,303.3362z"/>
				<path d="M277.4546,176.5542c11.4798-10.5683,23.8081-20.2849,36.5015-29.716c19.6315-14.5863,39.1047-17.7894,61.6466-9.4303
					c13.5309,5.0178,27.455,9.1808,41.4869,12.5381c5.3535,1.2808,11.8183,0.2408,17.2313-1.4682
					c19.5444-6.171,38.7726-13.34,58.2971-19.5798c8.2107-2.6241,15.6593-1.2011,23.1789,4.6566
					c18.0615,14.0694,39.5052,20.0344,62.5685,22.7021c-32.7446,10.8156-60.3903,28.7809-83.467,55.6967
					c-16.0743-17.4391-37.274-13.0068-58.0744-12.3887c15.517-6.8508,28.65-12.9268,42.0646-18.3002
					c2.2518-0.9021,6.1485,0.5678,8.5491,2.097c7.2409,4.6129,13.0559,3.9148,19.3862-2.1127
					c7.4946-7.1361,15.9029-13.3126,24.4863-20.3748c-15.7797-11.5357-31.6432-20.0112-50.0667-10.4414
					c-14.2289,7.3909-27.654,16.5276-40.6723,25.9447c-4.6208,3.3424-6.8869,5.413-12.7,2.0171
					c-55.0466-32.1592-117.5899-16.9668-150.4166,30.5864l0,0l-0.0001,0v0L277.4546,176.5542L277.4546,176.5542z"/>
				<path d="M501.1998,492.7502c-1.7354,1.0858-3.4741,2.1643-5.2175,3.2322l-28.9031-28.9032
					c0.8545-0.1307,1.7016-0.233,2.5331-0.3026c22.8484-1.9152,41.0248-17.8066,43.7073-39.5562
					c2.7168-22.0277-10.4707-41.227-33.1431-48.2841c-1.537-0.4784-3.0277-1.1066-5.8284-2.1407
					c32.1193-5.0378,61.9478,14.4949,72.7675,39.058c3.4854,7.9124,5.2871,16.5542,5.5627,25.4182l-25.7393,25.7393
					L501.1998,492.7502L501.1998,492.7502z"/>
				<path d="M335.7622,238.241c-14.225,6.1475-28.7961,11.028-45.5869,9.5193c10.3573-14.6103,20.1405-28.6232,30.2453-42.4002
					c1.2874-1.7554,4.1721-2.9972,6.4559-3.2575c15.1782-1.7296,30.3941-3.127,42.1394-4.2898
					c-7.8093,10.0095-17.3828,22.3775-27.0936,34.6372C340.1776,234.653,338.2032,237.1861,335.7622,238.241z"/>
			</g>
		</g>
	</g>
</g>
</svg>
